<svg width="223" height="97" viewBox="0 0 223 97" fill="none" xmlns="http://www.w3.org/2000/svg">
<mask id="path-1-outside-1" maskUnits="userSpaceOnUse" x="0" y="0" width="223" height="97" fill="black">
<rect fill="white" width="223" height="97"/>
<path d="M20.1219 77.5381C17.0919 77.5381 14.3895 77.0619 12.0146 76.1093C9.63968 75.1839 7.63331 73.8367 5.99545 72.0676C4.3849 70.2713 3.14286 68.0804 2.26934 65.4949C1.42311 62.8821 1 59.9155 1 56.5951C1 54.7716 1.12284 52.8392 1.36852 50.798C1.64149 48.7567 2.05096 46.6883 2.59691 44.5926C3.44313 41.2722 4.54868 38.1287 5.91356 35.1621C7.27844 32.1683 8.84805 29.4058 10.6224 26.8747C12.424 24.3436 20.0482 13.77 22.1775 11.7287C24.334 9.66028 28.1884 6.93319 30.5633 5.49072C32.9382 4.04824 35.4086 2.94598 37.9746 2.18392C40.5405 1.39464 43.1474 1 45.7953 1C47.051 1 48.3203 1.14969 49.6033 1.44907C50.8863 1.74845 52.0328 2.25196 53.0428 2.95959C54.0801 3.64 54.9127 4.56536 55.5405 5.73567C56.1957 6.87876 56.5233 8.30762 56.5233 10.0223C56.5233 11.5464 56.2912 12.9616 55.8272 14.268C55.3904 15.5472 54.7626 16.7311 53.9436 17.8198C53.152 18.8812 52.2239 19.861 51.1593 20.7592C50.0947 21.6573 48.9482 22.4602 47.7198 23.1678L46.9828 22.1472C49.1939 20.3781 50.8181 18.4321 51.8554 16.3093C52.92 14.1592 53.4523 11.9138 53.4523 9.57319C53.4523 7.12371 52.879 5.34103 51.7325 4.22515C50.6133 3.10928 48.9618 2.55134 46.778 2.55134C43.9937 2.55134 41.1547 3.38144 38.2612 5.04165C35.3949 6.67463 32.6379 8.9336 29.99 11.8185C27.3421 14.7035 21.2439 20.8163 19.0328 24.7355C16.8217 28.6274 11.414 39.3807 9.96725 43.8986C9.03913 46.8108 8.3294 49.6821 7.83804 52.5126C7.34668 55.3159 7.10101 57.9423 7.10101 60.3918C7.10101 70.4891 11.6461 75.5377 20.7361 75.5377C25.9227 75.5377 30.6998 73.9047 35.0674 70.6388C39.435 67.3456 43.5569 62.2969 47.4332 55.4928L49.5624 51.7369L50.6679 52.5126L48.5387 56.2685C46.4641 59.9155 44.3485 63.0726 42.192 65.7398C40.0355 68.407 37.7971 70.6116 35.4768 72.3534C33.1565 74.0953 30.7271 75.388 28.1884 76.2318C25.6497 77.1027 22.9609 77.5381 20.1219 77.5381Z"/>
<path d="M66.2275 6.0541H72.3285L58.0383 45.1233C59.8945 42.0207 61.6552 39.3262 63.3203 37.04C65.0128 34.7266 66.6916 32.8215 68.3567 31.3246C70.0219 29.8005 71.728 28.671 73.475 27.9361C75.2221 27.1741 77.092 26.793 79.0847 26.793C80.7498 26.793 82.2103 27.0652 83.466 27.6095C84.7489 28.1539 85.8135 28.9295 86.6598 29.9365C87.5333 30.9163 88.1884 32.1003 88.6252 33.4883C89.062 34.8763 89.2803 36.4277 89.2803 38.1423C89.2803 39.3671 89.0483 40.8095 88.5842 42.4697C88.1475 44.1299 87.5879 45.899 86.9054 47.7769C86.223 49.6549 85.486 51.5872 84.6943 53.574C83.9027 55.5336 83.1657 57.4388 82.4832 59.2895C81.8008 61.1402 81.2275 62.8685 80.7635 64.4742C80.3267 66.0528 80.1083 67.4 80.1083 68.5159C80.1083 70.3938 80.5997 71.8907 81.5824 73.0066C82.5924 74.1225 84.1484 74.6804 86.2503 74.6804C88.0792 74.6804 89.8399 74.2858 91.5324 73.4965C93.2521 72.7072 94.9446 71.5233 96.6097 69.9447C98.3022 68.339 99.9946 66.3386 101.687 63.9435C103.38 61.5213 105.14 58.7044 106.969 55.4928L109.098 51.7369L110.204 52.5126L108.075 56.2685C106.082 59.7794 104.171 62.8276 102.342 65.4132C100.541 67.9716 98.7253 70.0944 96.8963 71.7819C95.0947 73.4421 93.2521 74.6804 91.3686 75.4969C89.4851 76.3134 87.4787 76.7216 85.3495 76.7216C83.6843 76.7216 82.2103 76.4631 80.9273 75.946C79.6716 75.4561 78.607 74.7485 77.7335 73.8231C76.8872 72.8977 76.2457 71.7819 75.809 70.4755C75.3722 69.1691 75.1538 67.713 75.1538 66.1072C75.1538 64.9369 75.3722 63.5353 75.809 61.9023C76.273 60.2421 76.8463 58.4594 77.5287 56.5543C78.2112 54.6491 78.9482 52.7031 79.7398 50.7163C80.5315 48.7023 81.2685 46.7699 81.9509 44.9192C82.6334 43.0685 83.193 41.3539 83.6297 39.7753C84.0938 38.1695 84.3258 36.8359 84.3258 35.7745C84.3258 33.6516 83.8208 31.9642 82.8108 30.7122C81.8281 29.4603 80.2858 28.8343 78.1839 28.8343C76.3276 28.8343 74.5396 29.2697 72.8199 30.1407C71.1002 31.0116 69.3258 32.3996 67.4969 34.3048C65.6952 36.1827 63.7981 38.6186 61.8053 41.6124C59.8399 44.6062 57.697 48.2396 55.3768 52.5126L46.778 75.946H40.718L66.2275 6.0541Z"/>
<path d="M108.771 52.1044C109.754 49.165 110.927 46.4978 112.292 44.1027C113.657 41.6805 115.131 39.5303 116.714 37.6524C118.325 35.7745 120.004 34.1551 121.751 32.7943C123.525 31.4335 125.286 30.3176 127.033 29.4467C128.807 28.5485 130.541 27.8817 132.233 27.4462C133.953 27.0108 135.563 26.793 137.065 26.793C138.621 26.793 139.917 27.038 140.955 27.5279C141.992 27.9906 142.825 28.6574 143.452 29.5283C144.107 30.372 144.572 31.4062 144.845 32.631C145.117 33.8285 145.254 35.1621 145.254 36.6318L148.571 27.5687H154.631L144.189 56.146C143.807 57.2074 143.425 58.2961 143.043 59.412C142.661 60.5006 142.32 61.5893 142.019 62.678C141.746 63.7394 141.514 64.7736 141.323 65.7806C141.159 66.7604 141.077 67.6722 141.077 68.5159C141.077 70.3938 141.161 71.9189 142.019 73.8558C142.613 75.197 142.83 75.841 143.567 76.9911C144.272 78.0923 144.373 79.5102 145.254 80.4775C164.527 101.638 202.557 91.9875 205.67 90.7575C207.849 89.8965 212.583 85.0945 212.583 85.0945C212.583 85.0945 214.657 83.0266 217.768 80.614L220.88 77.8568L221.917 78.3794L219.151 80.9587C216.048 84.1233 214.743 85.1426 211.891 88.1963C210.835 89.3273 211.2 89.2303 208.434 90.9535C206.909 91.9039 205.35 93.011 203.573 93.5335C201.09 94.2637 199.061 94.5786 196.964 95.1012C195.818 95.3869 159.815 100.506 142.519 82.7392C141.017 81.1965 139.972 79.2619 138.85 76.4685C138.095 74.5896 137.215 71.7819 136.778 70.4755C136.341 69.1691 136.123 67.713 136.123 66.1072C136.123 65.0458 136.218 63.9027 136.41 62.678C136.601 61.426 136.887 60.1332 137.269 58.7996C133.693 64.7872 130.158 69.2779 126.664 72.2718C123.17 75.2384 119.622 76.7216 116.018 76.7216C114.326 76.7216 112.879 76.4223 111.678 75.8235C110.504 75.1975 109.535 74.3402 108.771 73.2516C108.006 72.1357 107.447 70.8429 107.092 69.3732C106.737 67.8763 106.56 66.2433 106.56 64.4742C106.56 62.5691 106.751 60.5687 107.133 58.473C107.515 56.3501 108.061 54.2272 108.771 52.1044ZM117.492 74.6804C118.966 74.6804 120.468 74.2994 121.996 73.5373C123.525 72.748 125.04 71.6866 126.542 70.353C128.07 68.9922 129.544 67.4136 130.964 65.6173C132.383 63.7938 133.721 61.8615 134.976 59.8202C136.259 57.7518 137.433 55.6289 138.498 53.4516C139.562 51.2743 140.477 49.1378 141.241 47.0421C142.033 44.9192 142.633 42.9052 143.043 41C143.48 39.0677 143.698 37.3394 143.698 35.8153C143.698 34.4273 143.521 33.2706 143.166 32.3452C142.838 31.3926 142.388 30.6306 141.814 30.059C141.269 29.4603 140.627 29.0384 139.89 28.7935C139.18 28.5485 138.443 28.426 137.679 28.426C136.15 28.426 134.444 28.9023 132.561 29.8549C130.704 30.7803 128.807 32.2091 126.869 34.1415C124.931 36.0466 123.02 38.4689 121.137 41.4083C119.28 44.3204 117.574 47.7497 116.018 51.6961C114.735 54.9893 113.766 58.0376 113.111 60.8408C112.483 63.6441 112.169 65.9848 112.169 67.8627C112.169 69.9856 112.592 71.6594 113.439 72.8841C114.312 74.0817 115.663 74.6804 117.492 74.6804ZM134.772 20.2203C135.618 19.8392 136.573 19.1588 137.638 18.179C138.73 17.1992 139.754 16.0561 140.709 14.7498C141.528 13.6611 142.169 12.6541 142.633 11.7287C143.125 10.8034 143.548 10.0005 143.903 9.32007C144.285 8.63966 144.667 8.12255 145.049 7.76873C145.431 7.3877 145.909 7.19719 146.482 7.19719C147.138 7.19719 147.615 7.42853 147.915 7.89121C148.243 8.32667 148.407 8.85739 148.407 9.48337C148.407 10.2726 148.175 11.0891 147.711 11.9329C147.274 12.7766 146.701 13.6067 145.991 14.4232C145.281 15.2124 144.462 15.9745 143.534 16.7093C142.633 17.4442 141.719 18.111 140.791 18.7098C139.863 19.3085 138.962 19.8392 138.088 20.3019C137.242 20.7374 136.519 21.0504 135.918 21.2409L134.772 20.2203Z"/>
</mask>
<path d="M20.1219 77.5381C17.0919 77.5381 14.3895 77.0619 12.0146 76.1093C9.63968 75.1839 7.63331 73.8367 5.99545 72.0676C4.3849 70.2713 3.14286 68.0804 2.26934 65.4949C1.42311 62.8821 1 59.9155 1 56.5951C1 54.7716 1.12284 52.8392 1.36852 50.798C1.64149 48.7567 2.05096 46.6883 2.59691 44.5926C3.44313 41.2722 4.54868 38.1287 5.91356 35.1621C7.27844 32.1683 8.84805 29.4058 10.6224 26.8747C12.424 24.3436 20.0482 13.77 22.1775 11.7287C24.334 9.66028 28.1884 6.93319 30.5633 5.49072C32.9382 4.04824 35.4086 2.94598 37.9746 2.18392C40.5405 1.39464 43.1474 1 45.7953 1C47.051 1 48.3203 1.14969 49.6033 1.44907C50.8863 1.74845 52.0328 2.25196 53.0428 2.95959C54.0801 3.64 54.9127 4.56536 55.5405 5.73567C56.1957 6.87876 56.5233 8.30762 56.5233 10.0223C56.5233 11.5464 56.2912 12.9616 55.8272 14.268C55.3904 15.5472 54.7626 16.7311 53.9436 17.8198C53.152 18.8812 52.2239 19.861 51.1593 20.7592C50.0947 21.6573 48.9482 22.4602 47.7198 23.1678L46.9828 22.1472C49.1939 20.3781 50.8181 18.4321 51.8554 16.3093C52.92 14.1592 53.4523 11.9138 53.4523 9.57319C53.4523 7.12371 52.879 5.34103 51.7325 4.22515C50.6133 3.10928 48.9618 2.55134 46.778 2.55134C43.9937 2.55134 41.1547 3.38144 38.2612 5.04165C35.3949 6.67463 32.6379 8.9336 29.99 11.8185C27.3421 14.7035 21.2439 20.8163 19.0328 24.7355C16.8217 28.6274 11.414 39.3807 9.96725 43.8986C9.03913 46.8108 8.3294 49.6821 7.83804 52.5126C7.34668 55.3159 7.10101 57.9423 7.10101 60.3918C7.10101 70.4891 11.6461 75.5377 20.7361 75.5377C25.9227 75.5377 30.6998 73.9047 35.0674 70.6388C39.435 67.3456 43.5569 62.2969 47.4332 55.4928L49.5624 51.7369L50.6679 52.5126L48.5387 56.2685C46.4641 59.9155 44.3485 63.0726 42.192 65.7398C40.0355 68.407 37.7971 70.6116 35.4768 72.3534C33.1565 74.0953 30.7271 75.388 28.1884 76.2318C25.6497 77.1027 22.9609 77.5381 20.1219 77.5381Z" fill="#404040"/>
<path d="M66.2275 6.0541H72.3285L58.0383 45.1233C59.8945 42.0207 61.6552 39.3262 63.3203 37.04C65.0128 34.7266 66.6916 32.8215 68.3567 31.3246C70.0219 29.8005 71.728 28.671 73.475 27.9361C75.2221 27.1741 77.092 26.793 79.0847 26.793C80.7498 26.793 82.2103 27.0652 83.466 27.6095C84.7489 28.1539 85.8135 28.9295 86.6598 29.9365C87.5333 30.9163 88.1884 32.1003 88.6252 33.4883C89.062 34.8763 89.2803 36.4277 89.2803 38.1423C89.2803 39.3671 89.0483 40.8095 88.5842 42.4697C88.1475 44.1299 87.5879 45.899 86.9054 47.7769C86.223 49.6549 85.486 51.5872 84.6943 53.574C83.9027 55.5336 83.1657 57.4388 82.4832 59.2895C81.8008 61.1402 81.2275 62.8685 80.7635 64.4742C80.3267 66.0528 80.1083 67.4 80.1083 68.5159C80.1083 70.3938 80.5997 71.8907 81.5824 73.0066C82.5924 74.1225 84.1484 74.6804 86.2503 74.6804C88.0792 74.6804 89.8399 74.2858 91.5324 73.4965C93.2521 72.7072 94.9446 71.5233 96.6097 69.9447C98.3022 68.339 99.9946 66.3386 101.687 63.9435C103.38 61.5213 105.14 58.7044 106.969 55.4928L109.098 51.7369L110.204 52.5126L108.075 56.2685C106.082 59.7794 104.171 62.8276 102.342 65.4132C100.541 67.9716 98.7253 70.0944 96.8963 71.7819C95.0947 73.4421 93.2521 74.6804 91.3686 75.4969C89.4851 76.3134 87.4787 76.7216 85.3495 76.7216C83.6843 76.7216 82.2103 76.4631 80.9273 75.946C79.6716 75.4561 78.607 74.7485 77.7335 73.8231C76.8872 72.8977 76.2457 71.7819 75.809 70.4755C75.3722 69.1691 75.1538 67.713 75.1538 66.1072C75.1538 64.9369 75.3722 63.5353 75.809 61.9023C76.273 60.2421 76.8463 58.4594 77.5287 56.5543C78.2112 54.6491 78.9482 52.7031 79.7398 50.7163C80.5315 48.7023 81.2685 46.7699 81.9509 44.9192C82.6334 43.0685 83.193 41.3539 83.6297 39.7753C84.0938 38.1695 84.3258 36.8359 84.3258 35.7745C84.3258 33.6516 83.8208 31.9642 82.8108 30.7122C81.8281 29.4603 80.2858 28.8343 78.1839 28.8343C76.3276 28.8343 74.5396 29.2697 72.8199 30.1407C71.1002 31.0116 69.3258 32.3996 67.4969 34.3048C65.6952 36.1827 63.7981 38.6186 61.8053 41.6124C59.8399 44.6062 57.697 48.2396 55.3768 52.5126L46.778 75.946H40.718L66.2275 6.0541Z" fill="#404040"/>
<path d="M108.771 52.1044C109.754 49.165 110.927 46.4978 112.292 44.1027C113.657 41.6805 115.131 39.5303 116.714 37.6524C118.325 35.7745 120.004 34.1551 121.751 32.7943C123.525 31.4335 125.286 30.3176 127.033 29.4467C128.807 28.5485 130.541 27.8817 132.233 27.4462C133.953 27.0108 135.563 26.793 137.065 26.793C138.621 26.793 139.917 27.038 140.955 27.5279C141.992 27.9906 142.825 28.6574 143.452 29.5283C144.107 30.372 144.572 31.4062 144.845 32.631C145.117 33.8285 145.254 35.1621 145.254 36.6318L148.571 27.5687H154.631L144.189 56.146C143.807 57.2074 143.425 58.2961 143.043 59.412C142.661 60.5006 142.32 61.5893 142.019 62.678C141.746 63.7394 141.514 64.7736 141.323 65.7806C141.159 66.7604 141.077 67.6722 141.077 68.5159C141.077 70.3938 141.161 71.9189 142.019 73.8558C142.613 75.197 142.83 75.841 143.567 76.9911C144.272 78.0923 144.373 79.5102 145.254 80.4775C164.527 101.638 202.557 91.9875 205.67 90.7575C207.849 89.8965 212.583 85.0945 212.583 85.0945C212.583 85.0945 214.657 83.0266 217.768 80.614L220.88 77.8568L221.917 78.3794L219.151 80.9587C216.048 84.1233 214.743 85.1426 211.891 88.1963C210.835 89.3273 211.2 89.2303 208.434 90.9535C206.909 91.9039 205.35 93.011 203.573 93.5335C201.09 94.2637 199.061 94.5786 196.964 95.1012C195.818 95.3869 159.815 100.506 142.519 82.7392C141.017 81.1965 139.972 79.2619 138.85 76.4685C138.095 74.5896 137.215 71.7819 136.778 70.4755C136.341 69.1691 136.123 67.713 136.123 66.1072C136.123 65.0458 136.218 63.9027 136.41 62.678C136.601 61.426 136.887 60.1332 137.269 58.7996C133.693 64.7872 130.158 69.2779 126.664 72.2718C123.17 75.2384 119.622 76.7216 116.018 76.7216C114.326 76.7216 112.879 76.4223 111.678 75.8235C110.504 75.1975 109.535 74.3402 108.771 73.2516C108.006 72.1357 107.447 70.8429 107.092 69.3732C106.737 67.8763 106.56 66.2433 106.56 64.4742C106.56 62.5691 106.751 60.5687 107.133 58.473C107.515 56.3501 108.061 54.2272 108.771 52.1044ZM117.492 74.6804C118.966 74.6804 120.468 74.2994 121.996 73.5373C123.525 72.748 125.04 71.6866 126.542 70.353C128.07 68.9922 129.544 67.4136 130.964 65.6173C132.383 63.7938 133.721 61.8615 134.976 59.8202C136.259 57.7518 137.433 55.6289 138.498 53.4516C139.562 51.2743 140.477 49.1378 141.241 47.0421C142.033 44.9192 142.633 42.9052 143.043 41C143.48 39.0677 143.698 37.3394 143.698 35.8153C143.698 34.4273 143.521 33.2706 143.166 32.3452C142.838 31.3926 142.388 30.6306 141.814 30.059C141.269 29.4603 140.627 29.0384 139.89 28.7935C139.18 28.5485 138.443 28.426 137.679 28.426C136.15 28.426 134.444 28.9023 132.561 29.8549C130.704 30.7803 128.807 32.2091 126.869 34.1415C124.931 36.0466 123.02 38.4689 121.137 41.4083C119.28 44.3204 117.574 47.7497 116.018 51.6961C114.735 54.9893 113.766 58.0376 113.111 60.8408C112.483 63.6441 112.169 65.9848 112.169 67.8627C112.169 69.9856 112.592 71.6594 113.439 72.8841C114.312 74.0817 115.663 74.6804 117.492 74.6804ZM134.772 20.2203C135.618 19.8392 136.573 19.1588 137.638 18.179C138.73 17.1992 139.754 16.0561 140.709 14.7498C141.528 13.6611 142.169 12.6541 142.633 11.7287C143.125 10.8034 143.548 10.0005 143.903 9.32007C144.285 8.63966 144.667 8.12255 145.049 7.76873C145.431 7.3877 145.909 7.19719 146.482 7.19719C147.138 7.19719 147.615 7.42853 147.915 7.89121C148.243 8.32667 148.407 8.85739 148.407 9.48337C148.407 10.2726 148.175 11.0891 147.711 11.9329C147.274 12.7766 146.701 13.6067 145.991 14.4232C145.281 15.2124 144.462 15.9745 143.534 16.7093C142.633 17.4442 141.719 18.111 140.791 18.7098C139.863 19.3085 138.962 19.8392 138.088 20.3019C137.242 20.7374 136.519 21.0504 135.918 21.2409L134.772 20.2203Z" fill="#404040"/>
<path d="M20.1219 77.5381C17.0919 77.5381 14.3895 77.0619 12.0146 76.1093C9.63968 75.1839 7.63331 73.8367 5.99545 72.0676C4.3849 70.2713 3.14286 68.0804 2.26934 65.4949C1.42311 62.8821 1 59.9155 1 56.5951C1 54.7716 1.12284 52.8392 1.36852 50.798C1.64149 48.7567 2.05096 46.6883 2.59691 44.5926C3.44313 41.2722 4.54868 38.1287 5.91356 35.1621C7.27844 32.1683 8.84805 29.4058 10.6224 26.8747C12.424 24.3436 20.0482 13.77 22.1775 11.7287C24.334 9.66028 28.1884 6.93319 30.5633 5.49072C32.9382 4.04824 35.4086 2.94598 37.9746 2.18392C40.5405 1.39464 43.1474 1 45.7953 1C47.051 1 48.3203 1.14969 49.6033 1.44907C50.8863 1.74845 52.0328 2.25196 53.0428 2.95959C54.0801 3.64 54.9127 4.56536 55.5405 5.73567C56.1957 6.87876 56.5233 8.30762 56.5233 10.0223C56.5233 11.5464 56.2912 12.9616 55.8272 14.268C55.3904 15.5472 54.7626 16.7311 53.9436 17.8198C53.152 18.8812 52.2239 19.861 51.1593 20.7592C50.0947 21.6573 48.9482 22.4602 47.7198 23.1678L46.9828 22.1472C49.1939 20.3781 50.8181 18.4321 51.8554 16.3093C52.92 14.1592 53.4523 11.9138 53.4523 9.57319C53.4523 7.12371 52.879 5.34103 51.7325 4.22515C50.6133 3.10928 48.9618 2.55134 46.778 2.55134C43.9937 2.55134 41.1547 3.38144 38.2612 5.04165C35.3949 6.67463 32.6379 8.9336 29.99 11.8185C27.3421 14.7035 21.2439 20.8163 19.0328 24.7355C16.8217 28.6274 11.414 39.3807 9.96725 43.8986C9.03913 46.8108 8.3294 49.6821 7.83804 52.5126C7.34668 55.3159 7.10101 57.9423 7.10101 60.3918C7.10101 70.4891 11.6461 75.5377 20.7361 75.5377C25.9227 75.5377 30.6998 73.9047 35.0674 70.6388C39.435 67.3456 43.5569 62.2969 47.4332 55.4928L49.5624 51.7369L50.6679 52.5126L48.5387 56.2685C46.4641 59.9155 44.3485 63.0726 42.192 65.7398C40.0355 68.407 37.7971 70.6116 35.4768 72.3534C33.1565 74.0953 30.7271 75.388 28.1884 76.2318C25.6497 77.1027 22.9609 77.5381 20.1219 77.5381Z" stroke="#404040" mask="url(#path-1-outside-1)"/>
<path d="M66.2275 6.0541H72.3285L58.0383 45.1233C59.8945 42.0207 61.6552 39.3262 63.3203 37.04C65.0128 34.7266 66.6916 32.8215 68.3567 31.3246C70.0219 29.8005 71.728 28.671 73.475 27.9361C75.2221 27.1741 77.092 26.793 79.0847 26.793C80.7498 26.793 82.2103 27.0652 83.466 27.6095C84.7489 28.1539 85.8135 28.9295 86.6598 29.9365C87.5333 30.9163 88.1884 32.1003 88.6252 33.4883C89.062 34.8763 89.2803 36.4277 89.2803 38.1423C89.2803 39.3671 89.0483 40.8095 88.5842 42.4697C88.1475 44.1299 87.5879 45.899 86.9054 47.7769C86.223 49.6549 85.486 51.5872 84.6943 53.574C83.9027 55.5336 83.1657 57.4388 82.4832 59.2895C81.8008 61.1402 81.2275 62.8685 80.7635 64.4742C80.3267 66.0528 80.1083 67.4 80.1083 68.5159C80.1083 70.3938 80.5997 71.8907 81.5824 73.0066C82.5924 74.1225 84.1484 74.6804 86.2503 74.6804C88.0792 74.6804 89.8399 74.2858 91.5324 73.4965C93.2521 72.7072 94.9446 71.5233 96.6097 69.9447C98.3022 68.339 99.9946 66.3386 101.687 63.9435C103.38 61.5213 105.14 58.7044 106.969 55.4928L109.098 51.7369L110.204 52.5126L108.075 56.2685C106.082 59.7794 104.171 62.8276 102.342 65.4132C100.541 67.9716 98.7253 70.0944 96.8963 71.7819C95.0947 73.4421 93.2521 74.6804 91.3686 75.4969C89.4851 76.3134 87.4787 76.7216 85.3495 76.7216C83.6843 76.7216 82.2103 76.4631 80.9273 75.946C79.6716 75.4561 78.607 74.7485 77.7335 73.8231C76.8872 72.8977 76.2457 71.7819 75.809 70.4755C75.3722 69.1691 75.1538 67.713 75.1538 66.1072C75.1538 64.9369 75.3722 63.5353 75.809 61.9023C76.273 60.2421 76.8463 58.4594 77.5287 56.5543C78.2112 54.6491 78.9482 52.7031 79.7398 50.7163C80.5315 48.7023 81.2685 46.7699 81.9509 44.9192C82.6334 43.0685 83.193 41.3539 83.6297 39.7753C84.0938 38.1695 84.3258 36.8359 84.3258 35.7745C84.3258 33.6516 83.8208 31.9642 82.8108 30.7122C81.8281 29.4603 80.2858 28.8343 78.1839 28.8343C76.3276 28.8343 74.5396 29.2697 72.8199 30.1407C71.1002 31.0116 69.3258 32.3996 67.4969 34.3048C65.6952 36.1827 63.7981 38.6186 61.8053 41.6124C59.8399 44.6062 57.697 48.2396 55.3768 52.5126L46.778 75.946H40.718L66.2275 6.0541Z" stroke="#404040" mask="url(#path-1-outside-1)"/>
<path d="M108.771 52.1044C109.754 49.165 110.927 46.4978 112.292 44.1027C113.657 41.6805 115.131 39.5303 116.714 37.6524C118.325 35.7745 120.004 34.1551 121.751 32.7943C123.525 31.4335 125.286 30.3176 127.033 29.4467C128.807 28.5485 130.541 27.8817 132.233 27.4462C133.953 27.0108 135.563 26.793 137.065 26.793C138.621 26.793 139.917 27.038 140.955 27.5279C141.992 27.9906 142.825 28.6574 143.452 29.5283C144.107 30.372 144.572 31.4062 144.845 32.631C145.117 33.8285 145.254 35.1621 145.254 36.6318L148.571 27.5687H154.631L144.189 56.146C143.807 57.2074 143.425 58.2961 143.043 59.412C142.661 60.5006 142.32 61.5893 142.019 62.678C141.746 63.7394 141.514 64.7736 141.323 65.7806C141.159 66.7604 141.077 67.6722 141.077 68.5159C141.077 70.3938 141.161 71.9189 142.019 73.8558C142.613 75.197 142.83 75.841 143.567 76.9911C144.272 78.0923 144.373 79.5102 145.254 80.4775C164.527 101.638 202.557 91.9875 205.67 90.7575C207.849 89.8965 212.583 85.0945 212.583 85.0945C212.583 85.0945 214.657 83.0266 217.768 80.614L220.88 77.8568L221.917 78.3794L219.151 80.9587C216.048 84.1233 214.743 85.1426 211.891 88.1963C210.835 89.3273 211.2 89.2303 208.434 90.9535C206.909 91.9039 205.35 93.011 203.573 93.5335C201.09 94.2637 199.061 94.5786 196.964 95.1012C195.818 95.3869 159.815 100.506 142.519 82.7392C141.017 81.1965 139.972 79.2619 138.85 76.4685C138.095 74.5896 137.215 71.7819 136.778 70.4755C136.341 69.1691 136.123 67.713 136.123 66.1072C136.123 65.0458 136.218 63.9027 136.41 62.678C136.601 61.426 136.887 60.1332 137.269 58.7996C133.693 64.7872 130.158 69.2779 126.664 72.2718C123.17 75.2384 119.622 76.7216 116.018 76.7216C114.326 76.7216 112.879 76.4223 111.678 75.8235C110.504 75.1975 109.535 74.3402 108.771 73.2516C108.006 72.1357 107.447 70.8429 107.092 69.3732C106.737 67.8763 106.56 66.2433 106.56 64.4742C106.56 62.5691 106.751 60.5687 107.133 58.473C107.515 56.3501 108.061 54.2272 108.771 52.1044ZM117.492 74.6804C118.966 74.6804 120.468 74.2994 121.996 73.5373C123.525 72.748 125.04 71.6866 126.542 70.353C128.07 68.9922 129.544 67.4136 130.964 65.6173C132.383 63.7938 133.721 61.8615 134.976 59.8202C136.259 57.7518 137.433 55.6289 138.498 53.4516C139.562 51.2743 140.477 49.1378 141.241 47.0421C142.033 44.9192 142.633 42.9052 143.043 41C143.48 39.0677 143.698 37.3394 143.698 35.8153C143.698 34.4273 143.521 33.2706 143.166 32.3452C142.838 31.3926 142.388 30.6306 141.814 30.059C141.269 29.4603 140.627 29.0384 139.89 28.7935C139.18 28.5485 138.443 28.426 137.679 28.426C136.15 28.426 134.444 28.9023 132.561 29.8549C130.704 30.7803 128.807 32.2091 126.869 34.1415C124.931 36.0466 123.02 38.4689 121.137 41.4083C119.28 44.3204 117.574 47.7497 116.018 51.6961C114.735 54.9893 113.766 58.0376 113.111 60.8408C112.483 63.6441 112.169 65.9848 112.169 67.8627C112.169 69.9856 112.592 71.6594 113.439 72.8841C114.312 74.0817 115.663 74.6804 117.492 74.6804ZM134.772 20.2203C135.618 19.8392 136.573 19.1588 137.638 18.179C138.73 17.1992 139.754 16.0561 140.709 14.7498C141.528 13.6611 142.169 12.6541 142.633 11.7287C143.125 10.8034 143.548 10.0005 143.903 9.32007C144.285 8.63966 144.667 8.12255 145.049 7.76873C145.431 7.3877 145.909 7.19719 146.482 7.19719C147.138 7.19719 147.615 7.42853 147.915 7.89121C148.243 8.32667 148.407 8.85739 148.407 9.48337C148.407 10.2726 148.175 11.0891 147.711 11.9329C147.274 12.7766 146.701 13.6067 145.991 14.4232C145.281 15.2124 144.462 15.9745 143.534 16.7093C142.633 17.4442 141.719 18.111 140.791 18.7098C139.863 19.3085 138.962 19.8392 138.088 20.3019C137.242 20.7374 136.519 21.0504 135.918 21.2409L134.772 20.2203Z" stroke="#404040" mask="url(#path-1-outside-1)"/>
<path d="M168.759 58.1012C167.618 58.1012 166.569 57.8241 165.613 57.2698C164.656 56.7047 163.896 55.933 163.331 54.9549C162.776 53.966 162.499 52.8574 162.499 51.6294C162.499 50.4448 162.787 49.3634 163.363 48.3853C163.95 47.4072 164.727 46.6356 165.694 46.0705C166.672 45.5053 167.71 45.2228 168.808 45.2228C169.569 45.2228 170.172 45.2934 170.617 45.4347C171.063 45.5651 171.579 45.7988 172.166 46.1357V46.7388C171.612 46.3585 171.096 46.0922 170.617 45.9401C170.15 45.777 169.563 45.6955 168.857 45.6955C167.781 45.6955 166.797 45.9727 165.906 46.5269C165.026 47.0703 164.325 47.8039 163.803 48.7277C163.293 49.6406 163.037 50.6241 163.037 51.6783C163.037 52.7433 163.298 53.7323 163.82 54.6452C164.341 55.5581 165.031 56.2863 165.89 56.8296C166.759 57.3622 167.694 57.6284 168.694 57.6284C169.411 57.6284 170.036 57.5469 170.569 57.3839C171.101 57.21 171.634 56.9438 172.166 56.5851V57.1883C171.644 57.5034 171.107 57.7317 170.552 57.873C170.009 58.0251 169.411 58.1012 168.759 58.1012Z" fill="#404040"/>
<path d="M185.927 57.7751H185.356L183.041 53.1128H176.553L174.287 57.7751H173.717L179.814 45.2554L185.927 57.7751ZM182.846 52.6401L179.781 46.4291L176.782 52.6401H182.846Z" fill="#404040"/>
<path d="M190.303 58.0034C188.945 58.0034 187.891 57.4437 187.141 56.3243V55.444C187.434 56.0961 187.858 56.6069 188.412 56.9764C188.978 57.3459 189.651 57.5306 190.434 57.5306C190.977 57.5306 191.477 57.4111 191.934 57.172C192.401 56.9329 192.77 56.596 193.042 56.1613C193.314 55.7266 193.45 55.2266 193.45 54.6615C193.45 54.1507 193.363 53.7106 193.189 53.3411C193.015 52.9716 192.727 52.6184 192.325 52.2814C191.923 51.9337 191.341 51.5261 190.581 51.0588L190.059 50.7328C189.581 50.4393 189.195 50.1785 188.902 49.9503C188.608 49.7221 188.353 49.4558 188.135 49.1515C187.853 48.7277 187.712 48.2386 187.712 47.6843C187.712 46.9453 187.951 46.3693 188.429 45.9564C188.907 45.5434 189.516 45.3369 190.255 45.3369C191.254 45.3369 192.048 45.7064 192.635 46.4454V47.2768C192.385 46.8204 192.042 46.4617 191.608 46.2009C191.173 45.9401 190.695 45.8096 190.173 45.8096C189.63 45.8096 189.173 45.9781 188.804 46.315C188.434 46.6519 188.249 47.1029 188.249 47.668C188.249 48.2223 188.418 48.7005 188.755 49.1026C189.103 49.4938 189.684 49.9231 190.499 50.3904C191.499 50.9773 192.276 51.5098 192.83 51.988C193.222 52.3467 193.504 52.7433 193.678 53.178C193.863 53.6128 193.955 54.0964 193.955 54.6289C193.955 55.3027 193.798 55.895 193.482 56.4058C193.167 56.9166 192.732 57.3133 192.178 57.5958C191.624 57.8675 190.999 58.0034 190.303 58.0034Z" fill="#404040"/>
<path d="M207.371 57.7751H206.8L204.485 53.1128H197.997L195.731 57.7751H195.161L201.258 45.2554L207.371 57.7751ZM204.29 52.6401L201.225 46.4291L198.225 52.6401H204.29Z" fill="#404040"/>
<path d="M162.53 65.8839V76.8876H162.058V64.4819L171.056 75.6486V64.6612H171.529V77.0669L162.53 65.8839Z" fill="#404040"/>
<path d="M179.945 77.2136C178.804 77.2136 177.744 76.9147 176.766 76.317C175.788 75.7193 175.011 74.9259 174.435 73.9369C173.87 72.9371 173.587 71.8666 173.587 70.7255C173.587 69.5952 173.875 68.5411 174.451 67.563C175.027 66.574 175.804 65.7915 176.782 65.2155C177.76 64.6286 178.82 64.3352 179.961 64.3352C181.113 64.3352 182.173 64.6232 183.14 65.1992C184.107 65.7752 184.873 66.5577 185.439 67.5467C186.015 68.5248 186.303 69.5844 186.303 70.7255C186.303 71.8992 186.015 72.986 185.439 73.9859C184.873 74.9748 184.102 75.7627 183.124 76.3496C182.157 76.9256 181.097 77.2136 179.945 77.2136ZM179.945 76.7409C180.988 76.7409 181.955 76.4746 182.847 75.9421C183.738 75.3987 184.444 74.6705 184.966 73.7576C185.498 72.8339 185.765 71.834 185.765 70.7581C185.765 69.6931 185.504 68.7041 184.982 67.7912C184.461 66.8783 183.754 66.1556 182.863 65.623C181.972 65.0797 181.005 64.808 179.961 64.808C178.907 64.808 177.934 65.0797 177.043 65.623C176.152 66.1556 175.44 66.8783 174.908 67.7912C174.386 68.7041 174.125 69.6931 174.125 70.7581C174.125 71.834 174.386 72.8339 174.908 73.7576C175.44 74.6705 176.152 75.3987 177.043 75.9421C177.934 76.4746 178.902 76.7409 179.945 76.7409Z" fill="#404040"/>
<path d="M197.759 64.6612L192.167 77.1647L186.576 64.6612H187.163L192.216 75.9258L197.204 64.6612H197.759Z" fill="#404040"/>
<path d="M208.334 76.8876H207.763L205.448 72.2253H198.96L196.694 76.8876H196.124L202.221 64.3678L208.334 76.8876ZM205.253 71.7525L202.188 65.5415L199.189 71.7525H205.253Z" fill="#404040"/>
<path fill-rule="evenodd" clip-rule="evenodd" d="M165.327 57.7537C164.286 57.1385 163.456 56.2965 162.844 55.2361L162.84 55.2298C162.235 54.1499 161.937 52.9454 161.937 51.6294C161.937 50.349 162.25 49.1684 162.879 48.1001L162.881 48.0961C163.516 47.0385 164.36 46.1988 165.411 45.5851L165.413 45.5837C166.474 44.9707 167.609 44.6606 168.808 44.6606C169.592 44.6606 170.258 44.7321 170.781 44.8969C171.282 45.0443 171.839 45.2996 172.446 45.6481L172.728 45.8102V47.8064L171.848 47.2023C171.325 46.8432 170.858 46.6066 170.447 46.4757L170.44 46.4733L170.432 46.4708C170.044 46.3353 169.525 46.2576 168.857 46.2576C167.883 46.2576 167.003 46.5068 166.203 47.0042L166.202 47.0052C165.404 47.4973 164.77 48.1602 164.293 49.0031C163.83 49.8312 163.599 50.7198 163.599 51.6783C163.599 52.6468 163.835 53.5395 164.308 54.3663C164.785 55.2011 165.41 55.8601 166.187 56.3524C166.969 56.8305 167.801 57.0663 168.694 57.0663C169.368 57.0663 169.934 56.9897 170.399 56.8479C170.874 56.6922 171.358 56.4514 171.852 56.1188L172.728 55.5288V57.5054L172.457 57.6694C171.893 58.01 171.306 58.2601 170.697 58.416C170.1 58.5827 169.452 58.6633 168.759 58.6633C167.522 58.6633 166.376 58.3617 165.331 57.7561L165.327 57.7537ZM164.724 55.871C164.381 55.5082 164.079 55.0996 163.82 54.6452C163.669 54.3818 163.54 54.112 163.433 53.836C163.169 53.1552 163.037 52.436 163.037 51.6783C163.037 51.6619 163.037 51.6456 163.037 51.6294C163.045 50.5936 163.3 49.6264 163.803 48.7276C163.814 48.7081 163.825 48.6887 163.837 48.6694C163.837 48.6681 163.838 48.6667 163.839 48.6654C164.357 47.7709 165.046 47.058 165.906 46.5269C165.919 46.519 165.932 46.5111 165.944 46.5033C165.945 46.5029 165.946 46.5025 165.946 46.5021C166.813 45.9726 167.767 45.7039 168.808 45.6957C168.824 45.6956 168.841 45.6955 168.857 45.6955C169.492 45.6955 170.03 45.7614 170.472 45.8931C170.476 45.8941 170.479 45.8952 170.482 45.8962C170.528 45.9101 170.573 45.9247 170.617 45.94C170.93 46.0395 171.259 46.1877 171.604 46.3847C171.706 46.4431 171.81 46.5058 171.915 46.5728C171.998 46.6255 172.082 46.6808 172.166 46.7388V46.1357C171.648 45.8381 171.184 45.621 170.776 45.4846C170.772 45.4831 170.768 45.4817 170.764 45.4804C170.714 45.4639 170.665 45.4487 170.617 45.4347C170.181 45.2964 169.595 45.2258 168.857 45.2229C168.841 45.2228 168.824 45.2228 168.808 45.2228C167.71 45.2228 166.672 45.5053 165.694 46.0704C165.677 46.0804 165.66 46.0905 165.643 46.1007C165.643 46.1009 165.642 46.1012 165.642 46.1015C164.699 46.6637 163.939 47.425 163.363 48.3853C163.349 48.4088 163.336 48.4323 163.322 48.4559C163.322 48.4566 163.321 48.4572 163.321 48.4578C162.773 49.4168 162.499 50.474 162.499 51.6294C162.499 51.6457 162.499 51.662 162.499 51.6783C162.504 52.5198 162.64 53.3049 162.907 54.0336C163.023 54.3515 163.164 54.6585 163.331 54.9549C163.612 55.4415 163.941 55.877 164.319 56.2614C164.701 56.6494 165.132 56.9853 165.612 57.2691C165.612 57.2694 165.612 57.2696 165.613 57.2698C165.615 57.2708 165.617 57.2719 165.618 57.273C166.555 57.8145 167.58 58.0905 168.694 58.1009C168.716 58.1011 168.737 58.1012 168.759 58.1012C169.411 58.1012 170.009 58.0251 170.552 57.8729C170.603 57.8599 170.655 57.8461 170.706 57.8315C170.708 57.8307 170.711 57.8299 170.714 57.8291C171.211 57.6863 171.695 57.4727 172.166 57.1883V56.5851C172.079 56.644 171.991 56.7003 171.904 56.7542C171.804 56.8159 171.704 56.8742 171.604 56.9294C171.259 57.1197 170.914 57.2712 170.569 57.3839C170.525 57.3971 170.482 57.4098 170.437 57.4219C170.434 57.4229 170.43 57.4238 170.427 57.4248C169.943 57.556 169.387 57.6238 168.759 57.6282C168.737 57.6283 168.716 57.6284 168.694 57.6284C167.694 57.6284 166.759 57.3621 165.89 56.8296C165.886 56.827 165.882 56.8244 165.878 56.8218C165.876 56.821 165.875 56.8202 165.874 56.8194C165.449 56.5487 165.066 56.2326 164.724 55.871ZM186.827 58.3373H185.008L182.693 53.6749H176.905L174.639 58.3373H172.818L179.813 43.9728L186.827 58.3373ZM183.041 53.1128L185.356 57.7751H185.927L179.814 45.2554L173.717 57.7751H174.287L176.553 53.1128H183.041ZM182.846 52.6401L179.781 46.4291L176.782 52.6401H182.846ZM181.942 52.0779H177.677L179.787 47.7104L181.942 52.0779ZM186.579 56.4951V55.444L187.654 55.2133C187.907 55.7756 188.263 56.2007 188.722 56.5072C189.182 56.807 189.744 56.9685 190.434 56.9685C190.892 56.9685 191.301 56.8686 191.673 56.674L191.678 56.6715C192.057 56.4775 192.349 56.2097 192.566 55.8633C192.776 55.527 192.888 55.1324 192.888 54.6615C192.888 54.2133 192.811 53.8587 192.68 53.5804C192.55 53.3025 192.321 53.0112 191.964 52.7123L191.961 52.7095L191.957 52.7066C191.588 52.3876 191.036 51.9983 190.286 51.5378L190.283 51.5355L189.765 51.2119C189.764 51.2115 189.764 51.2111 189.763 51.2107C189.276 50.9117 188.872 50.6393 188.556 50.394C188.22 50.1322 187.927 49.8265 187.678 49.4782L187.673 49.4708L187.668 49.4633C187.318 48.939 187.149 48.3394 187.149 47.6843C187.149 46.8126 187.438 46.0692 188.061 45.5309C188.659 45.0151 189.405 44.7747 190.255 44.7747C191.414 44.7747 192.374 45.2135 193.075 46.0958L193.197 46.2493V47.2768L192.142 47.5468C191.938 47.1754 191.665 46.891 191.318 46.6829C190.974 46.476 190.596 46.3717 190.173 46.3717C189.757 46.3717 189.439 46.4964 189.182 46.7304C188.946 46.9463 188.812 47.2382 188.812 47.668C188.812 48.0953 188.937 48.4418 189.181 48.7353C189.469 49.0574 189.987 49.4486 190.779 49.9028L190.784 49.9056C191.798 50.501 192.607 51.0531 193.197 51.5624L193.204 51.5679L193.21 51.5736C193.654 51.9802 193.988 52.4431 194.198 52.9637C194.414 53.4748 194.517 54.0326 194.517 54.6289C194.517 55.3938 194.337 56.0909 193.961 56.701C193.589 57.3027 193.076 57.769 192.434 58.0966L192.43 58.0986L192.426 58.1005C191.785 58.4145 191.074 58.5655 190.303 58.5655C188.759 58.5655 187.529 57.9138 186.674 56.6371L186.579 56.4951ZM192.16 57.6045C192.166 57.6016 192.172 57.5987 192.178 57.5958C192.724 57.3173 193.155 56.928 193.469 56.4278C193.473 56.4205 193.478 56.4131 193.482 56.4058C193.792 55.9032 193.95 55.3218 193.955 54.6615C193.955 54.6506 193.955 54.6398 193.955 54.6289C193.955 54.0964 193.863 53.6127 193.678 53.178C193.67 53.1592 193.663 53.1405 193.655 53.1218C193.479 52.7091 193.205 52.3311 192.83 51.988C192.783 51.9475 192.735 51.9066 192.685 51.8654C192.683 51.8636 192.68 51.8617 192.678 51.8599C192.211 51.4761 191.606 51.0586 190.863 50.6074C190.862 50.6067 190.86 50.606 190.859 50.6053C190.743 50.5345 190.623 50.4629 190.499 50.3904C190.443 50.3581 190.387 50.3259 190.333 50.2939C190.332 50.2932 190.331 50.2925 190.33 50.2918C189.884 50.0287 189.515 49.778 189.221 49.5396C189.035 49.389 188.88 49.2433 188.755 49.1026C188.689 49.0238 188.629 48.9421 188.576 48.8576C188.573 48.8527 188.57 48.8479 188.567 48.843C188.358 48.5034 188.252 48.1172 188.25 47.6843C188.249 47.6789 188.249 47.6735 188.249 47.668C188.249 47.1216 188.422 46.6818 188.768 46.3488C188.78 46.3374 188.792 46.3261 188.804 46.315C189.173 45.9781 189.63 45.8096 190.173 45.8096C190.2 45.8096 190.228 45.81 190.255 45.8107C190.745 45.8236 191.196 45.9537 191.608 46.2009C191.777 46.3022 191.932 46.4183 192.073 46.5492C192.138 46.6103 192.201 46.6746 192.261 46.7422C192.403 46.9023 192.527 47.0805 192.635 47.2768V46.4454C192.411 46.1632 192.156 45.9348 191.872 45.7604C191.412 45.478 190.873 45.3369 190.255 45.3369C190.227 45.3369 190.2 45.3371 190.173 45.3377C189.484 45.3521 188.912 45.5507 188.456 45.9334C188.447 45.9409 188.438 45.9486 188.429 45.9563C187.954 46.3663 187.715 46.9368 187.712 47.668C187.712 47.6734 187.712 47.6789 187.712 47.6843C187.712 48.2386 187.853 48.7276 188.135 49.1515C188.206 49.2499 188.28 49.3444 188.358 49.4349C188.362 49.4387 188.365 49.4425 188.368 49.4463C188.529 49.631 188.707 49.799 188.902 49.9503C189.195 50.1785 189.581 50.4393 190.059 50.7328L190.581 51.0588C191.341 51.5261 191.923 51.9337 192.325 52.2814C192.37 52.3194 192.414 52.3575 192.456 52.3958C192.461 52.3996 192.465 52.4033 192.469 52.407C192.796 52.7059 193.037 53.0172 193.189 53.341C193.193 53.3502 193.197 53.3593 193.202 53.3686C193.203 53.3719 193.205 53.3752 193.206 53.3785C193.365 53.7322 193.446 54.149 193.45 54.6289C193.45 54.6397 193.45 54.6506 193.45 54.6615C193.45 55.2181 193.318 55.7115 193.054 56.1417C193.05 56.1482 193.046 56.1547 193.042 56.1612C192.776 56.5868 192.416 56.9187 191.963 57.1568C191.961 57.158 191.958 57.1591 191.956 57.1603C191.949 57.1642 191.941 57.1681 191.934 57.172C191.477 57.411 190.977 57.5306 190.434 57.5306C190.39 57.5306 190.347 57.53 190.303 57.5289C189.576 57.5093 188.946 57.3252 188.412 56.9763C188.138 56.7935 187.896 56.5762 187.686 56.3243C187.621 56.2471 187.56 56.1666 187.501 56.0829C187.365 55.8876 187.245 55.6746 187.141 55.444V56.3243C187.431 56.7575 187.767 57.1069 188.148 57.3725C188.15 57.3733 188.151 57.3741 188.152 57.3749C188.755 57.7939 189.472 58.0033 190.303 58.0033C190.347 58.0033 190.391 58.0028 190.434 58.0017C191.068 57.9859 191.642 57.8542 192.156 57.6066C192.157 57.6059 192.159 57.6052 192.16 57.6045ZM208.271 58.3373H206.452L204.137 53.6749H198.349L196.083 58.3373H194.262L201.257 43.9728L208.271 58.3373ZM204.485 53.1128L206.8 57.7751H207.371L201.258 45.2554L195.161 57.7751H195.731L197.997 53.1128H204.485ZM204.29 52.6401L201.225 46.4291L198.225 52.6401H204.29ZM203.385 52.0779H199.121L201.23 47.7104L203.385 52.0779ZM162.058 64.4819V76.8875H162.53V65.8838L171.529 77.0669V64.6612H171.056V75.6486L162.058 64.4819ZM170.494 74.0552L161.496 62.8884V77.4497H163.093V67.4791L172.091 78.6621V64.0991H170.494V74.0552ZM173.946 74.2135C173.333 73.1299 173.025 71.9642 173.025 70.7255C173.025 69.4949 173.34 68.3427 173.966 67.2788C174.59 66.2086 175.435 65.3572 176.495 64.7322C177.56 64.0937 178.719 63.773 179.961 63.773C181.212 63.773 182.371 64.0871 183.428 64.7162C184.478 65.3418 185.312 66.1939 185.925 67.2645C186.551 68.3287 186.865 69.4858 186.865 70.7255C186.865 71.9956 186.552 73.1792 185.926 74.2657C185.313 75.338 184.473 76.1955 183.413 76.8316L183.411 76.8326C182.355 77.4616 181.196 77.7757 179.945 77.7757C178.7 77.7757 177.539 77.448 176.473 76.7966C175.415 76.1504 174.572 75.2895 173.949 74.2198L173.946 74.2135ZM185.42 74.0174C185.427 74.0069 185.433 73.9964 185.439 73.9858C186.009 72.9953 186.297 71.9193 186.303 70.7581C186.303 70.7472 186.303 70.7363 186.303 70.7255C186.303 69.5843 186.015 68.5247 185.439 67.5466C185.436 67.5425 185.434 67.5384 185.432 67.5343C184.867 66.5512 184.103 65.7728 183.14 65.1992C183.136 65.1965 183.131 65.1937 183.126 65.191C183.125 65.1903 183.124 65.1895 183.122 65.1887C182.16 64.6197 181.106 64.3352 179.961 64.3352C178.825 64.3352 177.77 64.6261 176.795 65.2078C176.794 65.2086 176.793 65.2093 176.791 65.2101C176.788 65.2119 176.785 65.2137 176.782 65.2155C175.814 65.786 175.042 66.559 174.468 67.5346C174.467 67.5359 174.466 67.5372 174.466 67.5385C174.461 67.5466 174.456 67.5548 174.451 67.5629C173.875 68.541 173.587 69.5952 173.587 70.7255C173.587 70.7363 173.587 70.7472 173.587 70.7581C173.593 71.887 173.875 72.9466 174.435 73.9369C174.448 73.9589 174.461 73.9809 174.474 74.0027C174.475 74.0047 174.476 74.0067 174.477 74.0087C175.049 74.9643 175.812 75.7338 176.766 76.317C176.778 76.3242 176.79 76.3313 176.801 76.3385C176.803 76.3392 176.804 76.3399 176.805 76.3406C177.772 76.9226 178.819 77.2136 179.945 77.2136C181.087 77.2136 182.138 76.9305 183.099 76.3643C183.1 76.3635 183.101 76.3628 183.103 76.3621C183.11 76.3579 183.117 76.3538 183.124 76.3496C184.091 75.7693 184.856 74.9925 185.419 74.0191C185.42 74.0185 185.42 74.018 185.42 74.0174ZM184.966 73.7576C184.972 73.7471 184.978 73.7366 184.984 73.726C184.984 73.7255 184.985 73.725 184.985 73.7244C185.505 72.8099 185.765 71.8211 185.765 70.7581C185.765 70.7472 185.765 70.7363 185.765 70.7255C185.759 69.6799 185.502 68.7078 184.993 67.8093C184.991 67.8074 184.99 67.8054 184.989 67.8035C184.987 67.7994 184.985 67.7953 184.982 67.7912C184.464 66.8845 183.764 66.1654 182.881 65.6339C182.875 65.6303 182.869 65.6267 182.863 65.623C181.972 65.0796 181.005 64.8079 179.961 64.8079C178.907 64.8079 177.934 65.0796 177.043 65.623C177.039 65.6254 177.035 65.6278 177.031 65.6302C177.03 65.6309 177.029 65.6316 177.028 65.6322C176.144 66.1639 175.437 66.8835 174.908 67.7912C174.902 67.8006 174.897 67.81 174.892 67.8194C174.891 67.8201 174.891 67.8208 174.89 67.8216C174.386 68.7167 174.13 69.6846 174.125 70.7255C174.125 70.7363 174.125 70.7472 174.125 70.7581C174.125 71.8059 174.373 72.7816 174.867 73.6851C174.868 73.687 174.869 73.6889 174.87 73.6908C174.883 73.7131 174.895 73.7354 174.908 73.7576C175.433 74.6586 176.133 75.3796 177.008 75.9206C177.02 75.9278 177.032 75.9349 177.043 75.942C177.934 76.4746 178.902 76.7408 179.945 76.7408C180.988 76.7408 181.955 76.4746 182.847 75.942C182.855 75.9372 182.863 75.9323 182.87 75.9274C182.871 75.9272 182.871 75.9269 182.872 75.9266C183.751 75.3849 184.449 74.6619 184.966 73.7576ZM175.395 68.0722C174.923 68.8984 174.687 69.7904 174.687 70.7581C174.687 71.7372 174.923 72.6405 175.395 73.4777C175.881 74.3088 176.525 74.9674 177.334 75.4607C178.137 75.9401 179.003 76.1787 179.945 76.1787C180.886 76.1787 181.753 75.9401 182.556 75.4608C183.365 74.9673 184.003 74.3091 184.478 73.4787L184.479 73.4769C184.962 72.6393 185.203 71.7364 185.203 70.7581C185.203 69.7895 184.967 68.8969 184.494 68.07C184.02 67.2399 183.382 66.5878 182.575 66.1056L182.57 66.103C181.767 65.6133 180.901 65.3701 179.961 65.3701C179.009 65.3701 178.138 65.6139 177.336 66.103L177.332 66.1056C176.524 66.5881 175.88 67.2408 175.395 68.0722ZM198.626 64.0991L192.167 78.5416L185.709 64.0991H187.526L192.213 74.545L196.839 64.0991H198.626ZM197.759 64.6612H197.204L192.216 75.9257L187.163 64.6612H186.576L192.167 77.1647L197.759 64.6612ZM209.234 77.4497H207.415L205.1 72.7874H199.312L197.046 77.4497H195.225L202.22 63.0852L209.234 77.4497ZM205.448 72.2252L207.763 76.8875H208.334L202.221 64.3678L196.124 76.8875H196.694L198.96 72.2252H205.448ZM205.253 71.7525L202.188 65.5415L199.189 71.7525H205.253ZM204.349 71.1904H200.084L202.193 66.8229L204.349 71.1904Z" fill="#404040"/>
<path d="M160.369 41.1329L183.734 20.9274L186.139 22.3822L161.926 43.1864L160.369 41.1329Z" fill="#404040"/>
<path d="M185.899 21.0099L209.148 41.1337L207.708 43.2689L183.494 22.4647L185.899 21.0099Z" fill="#404040"/>
<ellipse cx="184.924" cy="21.8481" rx="1.6277" ry="1.17349" fill="#404040"/>
<path d="M171.184 4.47709C171.115 4.57664 171.003 4.74151 170.848 4.9717C170.692 5.2019 170.512 5.47564 170.307 5.79294C170.101 6.11023 169.877 6.46175 169.635 6.84748C169.398 7.23321 169.159 7.63139 168.916 8.04201C168.68 8.45263 168.446 8.86947 168.216 9.29253C167.992 9.70937 167.793 10.1107 167.619 10.4964C167.345 11.0936 167.118 11.6287 166.938 12.1015C166.763 12.5681 166.623 12.985 166.518 13.3521C166.418 13.7191 166.347 14.0395 166.303 14.3133C166.266 14.5808 166.247 14.811 166.247 15.0039C166.247 15.3585 166.3 15.6042 166.406 15.7411C166.518 15.878 166.667 15.9464 166.854 15.9464C167.047 15.9464 167.23 15.8966 167.404 15.7971C167.585 15.6976 167.756 15.57 167.918 15.4145C168.085 15.2589 168.241 15.0816 168.384 14.8825C168.533 14.6835 168.67 14.4844 168.795 14.2853C168.925 14.0862 169.044 13.8964 169.149 13.716C169.255 13.5356 169.348 13.3832 169.429 13.2587L169.765 13.52C169.697 13.632 169.61 13.7813 169.504 13.968C169.404 14.1484 169.289 14.3475 169.159 14.5652C169.028 14.783 168.879 15.0039 168.711 15.2278C168.543 15.4456 168.356 15.6447 168.151 15.8251C167.952 16.0055 167.728 16.1548 167.479 16.273C167.236 16.385 166.972 16.441 166.686 16.441C166.549 16.441 166.403 16.4224 166.247 16.385C166.098 16.3477 165.958 16.2824 165.827 16.1891C165.696 16.0957 165.581 15.9682 165.482 15.8064C165.382 15.6385 165.317 15.4269 165.286 15.1718C164.819 15.6758 164.365 16.0584 163.923 16.3197C163.482 16.5748 163.065 16.7023 162.673 16.7023C162.474 16.7023 162.253 16.6681 162.01 16.5997C161.774 16.5312 161.55 16.413 161.338 16.245C161.127 16.0771 160.949 15.8562 160.806 15.5825C160.663 15.3025 160.592 14.9572 160.592 14.5466C160.592 14.0862 160.663 13.6476 160.806 13.2307C160.949 12.8139 161.142 12.4282 161.385 12.0735C161.628 11.7127 161.904 11.3892 162.216 11.103C162.533 10.8106 162.863 10.5648 163.205 10.3657C163.547 10.1604 163.889 10.0018 164.231 9.88979C164.58 9.7778 164.906 9.72181 165.211 9.72181C165.616 9.72181 165.933 9.77158 166.163 9.87113C166.393 9.97067 166.567 10.0702 166.686 10.1698C166.773 9.99556 166.891 9.77469 167.04 9.50717C167.19 9.23342 167.364 8.93168 167.563 8.60194C167.762 8.26598 167.983 7.91136 168.225 7.53807C168.468 7.15856 168.726 6.77904 169 6.39953C169.274 6.0138 169.56 5.63429 169.859 5.261C170.163 4.88771 170.471 4.53931 170.783 4.21579L171.184 4.47709ZM165.276 14.4719C165.308 14.0115 165.413 13.4703 165.594 12.8481C165.78 12.2197 166.064 11.498 166.443 10.683C166.356 10.5524 166.231 10.4528 166.07 10.3844C165.914 10.3097 165.737 10.2724 165.538 10.2724C165.233 10.2724 164.922 10.3346 164.605 10.4591C164.293 10.5835 163.992 10.7515 163.699 10.963C163.413 11.1745 163.143 11.4265 162.887 11.7189C162.632 12.0051 162.408 12.3131 162.216 12.6428C162.029 12.9725 161.88 13.3178 161.768 13.6787C161.662 14.0333 161.609 14.3848 161.609 14.7332C161.609 15.1998 161.705 15.5638 161.898 15.8251C162.097 16.0864 162.362 16.217 162.691 16.217C162.847 16.217 163.018 16.1859 163.205 16.1237C163.391 16.0615 163.594 15.962 163.811 15.8251C164.035 15.682 164.269 15.5016 164.511 15.2838C164.754 15.0599 165.009 14.7892 165.276 14.4719Z" fill="#404040"/>
<path d="M170.148 14.6119C170.135 14.6866 170.126 14.7612 170.12 14.8359C170.114 14.9105 170.111 14.9852 170.111 15.0599C170.111 15.2838 170.142 15.4985 170.204 15.7038C170.272 15.9029 170.369 16.0802 170.493 16.2357C170.624 16.385 170.783 16.5032 170.969 16.5903C171.162 16.6774 171.38 16.721 171.622 16.721C172.437 16.721 173.224 16.4441 173.983 15.8904C174.742 15.3367 175.498 14.4595 176.251 13.2587L176.568 13.5387C176.158 14.2231 175.741 14.8017 175.318 15.2745C174.895 15.7411 174.472 16.1206 174.049 16.413C173.632 16.7054 173.221 16.917 172.817 17.0476C172.413 17.1783 172.027 17.2436 171.66 17.2436C171.392 17.2436 171.109 17.2063 170.811 17.1316C170.512 17.057 170.235 16.9325 169.98 16.7583C169.731 16.5841 169.526 16.3508 169.364 16.0584C169.196 15.766 169.112 15.402 169.112 14.9665C169.112 14.4999 169.193 14.052 169.355 13.6227C169.51 13.1872 169.716 12.7828 169.971 12.4095C170.226 12.0362 170.518 11.6971 170.848 11.3923C171.178 11.0812 171.51 10.8168 171.846 10.599C172.189 10.3813 172.521 10.2133 172.845 10.0951C173.168 9.97067 173.455 9.90846 173.704 9.90846C173.865 9.90846 174.03 9.93334 174.198 9.98311C174.366 10.0329 174.515 10.1107 174.646 10.2164C174.783 10.3222 174.892 10.4622 174.973 10.6364C175.06 10.8106 175.103 11.019 175.103 11.2616C175.103 11.5914 175.026 11.9024 174.87 12.1949C174.721 12.481 174.519 12.7486 174.263 12.9974C174.008 13.2401 173.713 13.4609 173.377 13.66C173.041 13.8529 172.689 14.0178 172.322 14.1546C171.955 14.2915 171.585 14.4004 171.212 14.4813C170.839 14.5621 170.484 14.6057 170.148 14.6119ZM170.223 14.2106C170.639 14.1671 171.031 14.08 171.398 13.9493C171.766 13.8187 172.101 13.66 172.406 13.4734C172.711 13.2805 172.982 13.0721 173.218 12.8481C173.461 12.6241 173.663 12.3971 173.825 12.1669C173.987 11.9367 174.111 11.7158 174.198 11.5043C174.285 11.2927 174.329 11.103 174.329 10.935C174.329 10.767 174.282 10.6333 174.189 10.5337C174.102 10.4342 173.996 10.3844 173.871 10.3844C173.598 10.3844 173.29 10.4839 172.948 10.683C172.605 10.8759 172.263 11.1465 171.921 11.4949C171.579 11.8371 171.255 12.2415 170.95 12.7081C170.652 13.1747 170.409 13.6756 170.223 14.2106Z" fill="#404040"/>
</svg>
