<svg width="89" height="39" viewBox="0 0 89 39" fill="none" xmlns="http://www.w3.org/2000/svg">
<mask id="path-1-outside-1" maskUnits="userSpaceOnUse" x="0" y="0" width="89" height="39" fill="black">
<rect fill="white" width="89" height="39"/>
<path d="M8.53047 31.1417C7.3372 31.1417 6.27294 30.9541 5.33768 30.579C4.40242 30.2146 3.61228 29.684 2.96727 28.9873C2.33302 28.2799 1.84389 27.4171 1.49988 26.3989C1.16663 25.37 1 24.2017 1 22.8941C1 22.1759 1.04838 21.4149 1.14513 20.6111C1.25263 19.8072 1.41388 18.9926 1.62888 18.1673C1.96214 16.8597 2.39752 15.6218 2.93502 14.4535C3.47253 13.2745 4.09066 12.1866 4.78942 11.1898C5.49893 10.193 8.50144 6.02898 9.33995 5.22511C10.1892 4.41053 11.7071 3.33657 12.6424 2.7685C13.5777 2.20044 14.5505 1.76635 15.5611 1.46624C16.5716 1.15541 17.5982 1 18.641 1C19.1355 1 19.6354 1.05895 20.1406 1.17685C20.6459 1.29475 21.0974 1.49304 21.4951 1.77171C21.9036 2.03966 22.2315 2.40408 22.4788 2.86497C22.7368 3.31513 22.8658 3.87783 22.8658 4.55308C22.8658 5.1533 22.7744 5.71065 22.5916 6.22512C22.4196 6.72887 22.1724 7.19512 21.8499 7.62384C21.5381 8.04185 21.1726 8.42771 20.7534 8.78141C20.3341 9.13511 19.8826 9.45129 19.3988 9.72997L19.1086 9.32804C19.9794 8.63135 20.619 7.865 21.0275 7.02898C21.4467 6.18225 21.6564 5.298 21.6564 4.37623C21.6564 3.41159 21.4306 2.70955 20.9791 2.27011C20.5384 1.83066 19.888 1.61094 19.028 1.61094C17.9315 1.61094 16.8134 1.93784 15.6739 2.59165C14.5452 3.23474 13.4594 4.12435 12.4166 5.26048C11.3739 6.39661 8.9723 8.80392 8.10154 10.3473C7.23078 11.88 5.10118 16.1148 4.53142 17.894C4.16591 19.0409 3.88641 20.1716 3.69291 21.2863C3.49941 22.3903 3.40265 23.4246 3.40265 24.3892C3.40265 28.3657 5.19255 30.3539 8.77234 30.3539C10.8149 30.3539 12.6961 29.7108 14.4162 28.4246C16.1362 27.1277 17.7595 25.1395 19.286 22.46L20.1245 20.9809L20.5599 21.2863L19.7214 22.7654C18.9043 24.2017 18.0712 25.445 17.2219 26.4954C16.3727 27.5457 15.4912 28.4139 14.5774 29.0999C13.6637 29.7859 12.7069 30.295 11.7071 30.6272C10.7074 30.9702 9.64848 31.1417 8.53047 31.1417Z"/>
<path d="M26.6874 2.99037H29.0901L23.4624 18.3763C24.1934 17.1545 24.8868 16.0934 25.5425 15.193C26.2091 14.282 26.8702 13.5317 27.5259 12.9422C28.1817 12.342 28.8536 11.8972 29.5416 11.6078C30.2296 11.3077 30.966 11.1576 31.7507 11.1576C32.4065 11.1576 32.9816 11.2648 33.4761 11.4792C33.9814 11.6935 34.4007 11.999 34.7339 12.3956C35.0779 12.7814 35.3359 13.2477 35.5079 13.7943C35.6799 14.3409 35.7659 14.9519 35.7659 15.6271C35.7659 16.1094 35.6745 16.6775 35.4918 17.3313C35.3198 17.9851 35.0994 18.6818 34.8307 19.4214C34.5619 20.1609 34.2717 20.9219 33.9599 21.7043C33.6481 22.476 33.3579 23.2263 33.0891 23.9552C32.8204 24.684 32.5946 25.3646 32.4119 25.997C32.2399 26.6186 32.1539 27.1492 32.1539 27.5886C32.1539 28.3282 32.3474 28.9177 32.7344 29.3571C33.1321 29.7966 33.7449 30.0163 34.5727 30.0163C35.2929 30.0163 35.9863 29.8609 36.6528 29.5501C37.3301 29.2392 37.9966 28.773 38.6523 28.1513C39.3188 27.519 39.9854 26.7312 40.6519 25.788C41.3184 24.834 42.0118 23.7247 42.732 22.46L43.5705 20.9809L44.0059 21.2863L43.1674 22.7654C42.3826 24.1481 41.6301 25.3485 40.9099 26.3667C40.2004 27.3743 39.4855 28.2103 38.7652 28.8748C38.0557 29.5286 37.3301 30.0163 36.5883 30.3378C35.8465 30.6594 35.0564 30.8202 34.2179 30.8202C33.5621 30.8202 32.9816 30.7183 32.4764 30.5147C31.9819 30.3218 31.5626 30.0431 31.2186 29.6787C30.8854 29.3142 30.6327 28.8748 30.4607 28.3603C30.2887 27.8459 30.2027 27.2724 30.2027 26.6401C30.2027 26.1792 30.2887 25.6272 30.4607 24.9841C30.6435 24.3303 30.8692 23.6282 31.138 22.878C31.4067 22.1277 31.697 21.3614 32.0088 20.5789C32.3205 19.7858 32.6108 19.0248 32.8795 18.2959C33.1483 17.5671 33.3686 16.8919 33.5406 16.2702C33.7234 15.6378 33.8148 15.1126 33.8148 14.6946C33.8148 13.8586 33.6159 13.1941 33.2181 12.7011C32.8311 12.208 32.2238 11.9615 31.396 11.9615C30.665 11.9615 29.9609 12.133 29.2836 12.476C28.6063 12.819 27.9076 13.3656 27.1873 14.1159C26.4778 14.8554 25.7307 15.8147 24.9459 16.9937C24.1719 18.1727 23.328 19.6036 22.4143 21.2863L19.028 30.5147H16.6414L26.6874 2.99037Z"/>
<path d="M43.4415 21.1255C43.8285 19.968 44.2908 18.9176 44.8283 17.9744C45.3658 17.0205 45.9463 16.1737 46.5698 15.4342C47.2041 14.6946 47.8652 14.0569 48.5532 13.521C49.252 12.9851 49.9453 12.5456 50.6334 12.2027C51.3321 11.849 52.0147 11.5864 52.6813 11.4149C53.3585 11.2434 53.9928 11.1576 54.584 11.1576C55.1968 11.1576 55.7074 11.2541 56.1159 11.447C56.5244 11.6292 56.8523 11.8918 57.0996 12.2348C57.3576 12.5671 57.5403 12.9744 57.6478 13.4567C57.7553 13.9283 57.8091 14.4535 57.8091 15.0323L59.1152 11.4631H61.5017L57.3898 22.7172C57.2393 23.1352 57.0888 23.5639 56.9383 24.0034C56.7878 24.4321 56.6534 24.8608 56.5352 25.2896C56.4277 25.7076 56.3363 26.1149 56.2611 26.5114C56.1965 26.8973 56.1643 27.2564 56.1643 27.5886C56.1643 28.3282 56.1973 28.9288 56.5352 29.6915C56.7692 30.2197 56.8545 30.4733 57.1447 30.9263C57.4225 31.3599 57.4621 31.9183 57.8091 32.2993C65.3991 40.6324 80.3756 36.832 81.6015 36.3476C82.4597 36.0086 84.3239 34.1175 84.3239 34.1175C84.3239 34.1175 85.1408 33.3031 86.3662 32.353L87.5916 31.2672L88 31.473L86.9108 32.4888C85.6888 33.735 85.1748 34.1364 84.0516 35.339C83.6357 35.7844 83.7793 35.7462 82.6901 36.4249C82.0894 36.7991 81.4757 37.2351 80.7759 37.4409C79.798 37.7285 78.9989 37.8525 78.1733 38.0583C77.7219 38.1708 63.5432 40.1868 56.7319 33.1899C56.1405 32.5824 55.7291 31.8205 55.2871 30.7205C54.9898 29.9805 54.6432 28.8748 54.4712 28.3603C54.2992 27.8459 54.2132 27.2724 54.2132 26.6401C54.2132 26.2221 54.2508 25.7719 54.326 25.2896C54.4013 24.7965 54.5142 24.2874 54.6647 23.7622C53.2564 26.1202 51.8642 27.8887 50.4882 29.0677C49.1122 30.236 47.7147 30.8202 46.2957 30.8202C45.6292 30.8202 45.0594 30.7023 44.5864 30.4665C44.1242 30.2199 43.7425 29.8823 43.4415 29.4536C43.1405 29.0141 42.9201 28.505 42.7804 27.9262C42.6406 27.3367 42.5708 26.6937 42.5708 25.997C42.5708 25.2467 42.646 24.4589 42.7965 23.6336C42.947 22.7976 43.162 21.9616 43.4415 21.1255ZM46.8762 30.0163C47.4567 30.0163 48.048 29.8662 48.65 29.5661C49.252 29.2553 49.8486 28.8373 50.4399 28.3121C51.0419 27.7762 51.6224 27.1545 52.1814 26.4471C52.7404 25.729 53.2671 24.968 53.7616 24.1642C54.2669 23.3496 54.7292 22.5136 55.1484 21.6561C55.5677 20.7986 55.9278 19.9573 56.2288 19.132C56.5406 18.2959 56.7771 17.5028 56.9383 16.7525C57.1103 15.9915 57.1963 15.3109 57.1963 14.7107C57.1963 14.1641 57.1264 13.7086 56.9867 13.3441C56.8577 12.969 56.6803 12.6689 56.4546 12.4438C56.2396 12.208 55.9869 12.0419 55.6967 11.9454C55.4172 11.849 55.1269 11.8007 54.8259 11.8007C54.2239 11.8007 53.552 11.9883 52.8103 12.3634C52.0792 12.7278 51.3321 13.2906 50.5689 14.0515C49.8056 14.8018 49.0531 15.7557 48.3113 16.9133C47.5803 18.0601 46.9084 19.4106 46.2957 20.9648C45.7904 22.2617 45.4088 23.4621 45.1508 24.5661C44.9035 25.6701 44.7799 26.5918 44.7799 27.3314C44.7799 28.1674 44.9465 28.8266 45.2798 29.3089C45.6238 29.7805 46.1559 30.0163 46.8762 30.0163ZM53.681 8.56919C54.0143 8.41913 54.3905 8.15118 54.8098 7.76532C55.2398 7.37947 55.6429 6.9293 56.0192 6.41483C56.3417 5.9861 56.5943 5.58953 56.7771 5.22511C56.9706 4.86069 57.1372 4.54451 57.2769 4.27655C57.4274 4.0086 57.5779 3.80495 57.7284 3.66561C57.8789 3.51556 58.0671 3.44053 58.2928 3.44053C58.5508 3.44053 58.739 3.53164 58.8572 3.71385C58.9862 3.88534 59.0507 4.09434 59.0507 4.34086C59.0507 4.65169 58.9593 4.97323 58.7766 5.3055C58.6046 5.63776 58.3788 5.96467 58.0993 6.28621C57.8198 6.59704 57.4973 6.89715 57.1318 7.18654C56.7771 7.47593 56.4169 7.73853 56.0514 7.97433C55.6859 8.21013 55.3312 8.41913 54.9872 8.60134C54.6539 8.77283 54.369 8.89609 54.1325 8.97112L53.681 8.56919Z"/>
</mask>
<path d="M8.53047 31.1417C7.3372 31.1417 6.27294 30.9541 5.33768 30.579C4.40242 30.2146 3.61228 29.684 2.96727 28.9873C2.33302 28.2799 1.84389 27.4171 1.49988 26.3989C1.16663 25.37 1 24.2017 1 22.8941C1 22.1759 1.04838 21.4149 1.14513 20.6111C1.25263 19.8072 1.41388 18.9926 1.62888 18.1673C1.96214 16.8597 2.39752 15.6218 2.93502 14.4535C3.47253 13.2745 4.09066 12.1866 4.78942 11.1898C5.49893 10.193 8.50144 6.02898 9.33995 5.22511C10.1892 4.41053 11.7071 3.33657 12.6424 2.7685C13.5777 2.20044 14.5505 1.76635 15.5611 1.46624C16.5716 1.15541 17.5982 1 18.641 1C19.1355 1 19.6354 1.05895 20.1406 1.17685C20.6459 1.29475 21.0974 1.49304 21.4951 1.77171C21.9036 2.03966 22.2315 2.40408 22.4788 2.86497C22.7368 3.31513 22.8658 3.87783 22.8658 4.55308C22.8658 5.1533 22.7744 5.71065 22.5916 6.22512C22.4196 6.72887 22.1724 7.19512 21.8499 7.62384C21.5381 8.04185 21.1726 8.42771 20.7534 8.78141C20.3341 9.13511 19.8826 9.45129 19.3988 9.72997L19.1086 9.32804C19.9794 8.63135 20.619 7.865 21.0275 7.02898C21.4467 6.18225 21.6564 5.298 21.6564 4.37623C21.6564 3.41159 21.4306 2.70955 20.9791 2.27011C20.5384 1.83066 19.888 1.61094 19.028 1.61094C17.9315 1.61094 16.8134 1.93784 15.6739 2.59165C14.5452 3.23474 13.4594 4.12435 12.4166 5.26048C11.3739 6.39661 8.9723 8.80392 8.10154 10.3473C7.23078 11.88 5.10118 16.1148 4.53142 17.894C4.16591 19.0409 3.88641 20.1716 3.69291 21.2863C3.49941 22.3903 3.40265 23.4246 3.40265 24.3892C3.40265 28.3657 5.19255 30.3539 8.77234 30.3539C10.8149 30.3539 12.6961 29.7108 14.4162 28.4246C16.1362 27.1277 17.7595 25.1395 19.286 22.46L20.1245 20.9809L20.5599 21.2863L19.7214 22.7654C18.9043 24.2017 18.0712 25.445 17.2219 26.4954C16.3727 27.5457 15.4912 28.4139 14.5774 29.0999C13.6637 29.7859 12.7069 30.295 11.7071 30.6272C10.7074 30.9702 9.64848 31.1417 8.53047 31.1417Z" fill="#404040"/>
<path d="M26.6874 2.99037H29.0901L23.4624 18.3763C24.1934 17.1545 24.8868 16.0934 25.5425 15.193C26.2091 14.282 26.8702 13.5317 27.5259 12.9422C28.1817 12.342 28.8536 11.8972 29.5416 11.6078C30.2296 11.3077 30.966 11.1576 31.7507 11.1576C32.4065 11.1576 32.9816 11.2648 33.4761 11.4792C33.9814 11.6935 34.4007 11.999 34.7339 12.3956C35.0779 12.7814 35.3359 13.2477 35.5079 13.7943C35.6799 14.3409 35.7659 14.9519 35.7659 15.6271C35.7659 16.1094 35.6745 16.6775 35.4918 17.3313C35.3198 17.9851 35.0994 18.6818 34.8307 19.4214C34.5619 20.1609 34.2717 20.9219 33.9599 21.7043C33.6481 22.476 33.3579 23.2263 33.0891 23.9552C32.8204 24.684 32.5946 25.3646 32.4119 25.997C32.2399 26.6186 32.1539 27.1492 32.1539 27.5886C32.1539 28.3282 32.3474 28.9177 32.7344 29.3571C33.1321 29.7966 33.7449 30.0163 34.5727 30.0163C35.2929 30.0163 35.9863 29.8609 36.6528 29.5501C37.3301 29.2392 37.9966 28.773 38.6523 28.1513C39.3188 27.519 39.9854 26.7312 40.6519 25.788C41.3184 24.834 42.0118 23.7247 42.732 22.46L43.5705 20.9809L44.0059 21.2863L43.1674 22.7654C42.3826 24.1481 41.6301 25.3485 40.9099 26.3667C40.2004 27.3743 39.4855 28.2103 38.7652 28.8748C38.0557 29.5286 37.3301 30.0163 36.5883 30.3378C35.8465 30.6594 35.0564 30.8202 34.2179 30.8202C33.5621 30.8202 32.9816 30.7183 32.4764 30.5147C31.9819 30.3218 31.5626 30.0431 31.2186 29.6787C30.8854 29.3142 30.6327 28.8748 30.4607 28.3603C30.2887 27.8459 30.2027 27.2724 30.2027 26.6401C30.2027 26.1792 30.2887 25.6272 30.4607 24.9841C30.6435 24.3303 30.8692 23.6282 31.138 22.878C31.4067 22.1277 31.697 21.3614 32.0088 20.5789C32.3205 19.7858 32.6108 19.0248 32.8795 18.2959C33.1483 17.5671 33.3686 16.8919 33.5406 16.2702C33.7234 15.6378 33.8148 15.1126 33.8148 14.6946C33.8148 13.8586 33.6159 13.1941 33.2181 12.7011C32.8311 12.208 32.2238 11.9615 31.396 11.9615C30.665 11.9615 29.9609 12.133 29.2836 12.476C28.6063 12.819 27.9076 13.3656 27.1873 14.1159C26.4778 14.8554 25.7307 15.8147 24.9459 16.9937C24.1719 18.1727 23.328 19.6036 22.4143 21.2863L19.028 30.5147H16.6414L26.6874 2.99037Z" fill="#404040"/>
<path d="M43.4415 21.1255C43.8285 19.968 44.2908 18.9176 44.8283 17.9744C45.3658 17.0205 45.9463 16.1737 46.5698 15.4342C47.2041 14.6946 47.8652 14.0569 48.5532 13.521C49.252 12.9851 49.9453 12.5456 50.6334 12.2027C51.3321 11.849 52.0147 11.5864 52.6813 11.4149C53.3585 11.2434 53.9928 11.1576 54.584 11.1576C55.1968 11.1576 55.7074 11.2541 56.1159 11.447C56.5244 11.6292 56.8523 11.8918 57.0996 12.2348C57.3576 12.5671 57.5403 12.9744 57.6478 13.4567C57.7553 13.9283 57.8091 14.4535 57.8091 15.0323L59.1152 11.4631H61.5017L57.3898 22.7172C57.2393 23.1352 57.0888 23.5639 56.9383 24.0034C56.7878 24.4321 56.6534 24.8608 56.5352 25.2896C56.4277 25.7076 56.3363 26.1149 56.2611 26.5114C56.1965 26.8973 56.1643 27.2564 56.1643 27.5886C56.1643 28.3282 56.1973 28.9288 56.5352 29.6915C56.7692 30.2197 56.8545 30.4733 57.1447 30.9263C57.4225 31.3599 57.4621 31.9183 57.8091 32.2993C65.3991 40.6324 80.3756 36.832 81.6015 36.3476C82.4597 36.0086 84.3239 34.1175 84.3239 34.1175C84.3239 34.1175 85.1408 33.3031 86.3662 32.353L87.5916 31.2672L88 31.473L86.9108 32.4888C85.6888 33.735 85.1748 34.1364 84.0516 35.339C83.6357 35.7844 83.7793 35.7462 82.6901 36.4249C82.0894 36.7991 81.4757 37.2351 80.7759 37.4409C79.798 37.7285 78.9989 37.8525 78.1733 38.0583C77.7219 38.1708 63.5432 40.1868 56.7319 33.1899C56.1405 32.5824 55.7291 31.8205 55.2871 30.7205C54.9898 29.9805 54.6432 28.8748 54.4712 28.3603C54.2992 27.8459 54.2132 27.2724 54.2132 26.6401C54.2132 26.2221 54.2508 25.7719 54.326 25.2896C54.4013 24.7965 54.5142 24.2874 54.6647 23.7622C53.2564 26.1202 51.8642 27.8887 50.4882 29.0677C49.1122 30.236 47.7147 30.8202 46.2957 30.8202C45.6292 30.8202 45.0594 30.7023 44.5864 30.4665C44.1242 30.2199 43.7425 29.8823 43.4415 29.4536C43.1405 29.0141 42.9201 28.505 42.7804 27.9262C42.6406 27.3367 42.5708 26.6937 42.5708 25.997C42.5708 25.2467 42.646 24.4589 42.7965 23.6336C42.947 22.7976 43.162 21.9616 43.4415 21.1255ZM46.8762 30.0163C47.4567 30.0163 48.048 29.8662 48.65 29.5661C49.252 29.2553 49.8486 28.8373 50.4399 28.3121C51.0419 27.7762 51.6224 27.1545 52.1814 26.4471C52.7404 25.729 53.2671 24.968 53.7616 24.1642C54.2669 23.3496 54.7292 22.5136 55.1484 21.6561C55.5677 20.7986 55.9278 19.9573 56.2288 19.132C56.5406 18.2959 56.7771 17.5028 56.9383 16.7525C57.1103 15.9915 57.1963 15.3109 57.1963 14.7107C57.1963 14.1641 57.1264 13.7086 56.9867 13.3441C56.8577 12.969 56.6803 12.6689 56.4546 12.4438C56.2396 12.208 55.9869 12.0419 55.6967 11.9454C55.4172 11.849 55.1269 11.8007 54.8259 11.8007C54.2239 11.8007 53.552 11.9883 52.8103 12.3634C52.0792 12.7278 51.3321 13.2906 50.5689 14.0515C49.8056 14.8018 49.0531 15.7557 48.3113 16.9133C47.5803 18.0601 46.9084 19.4106 46.2957 20.9648C45.7904 22.2617 45.4088 23.4621 45.1508 24.5661C44.9035 25.6701 44.7799 26.5918 44.7799 27.3314C44.7799 28.1674 44.9465 28.8266 45.2798 29.3089C45.6238 29.7805 46.1559 30.0163 46.8762 30.0163ZM53.681 8.56919C54.0143 8.41913 54.3905 8.15118 54.8098 7.76532C55.2398 7.37947 55.6429 6.9293 56.0192 6.41483C56.3417 5.9861 56.5943 5.58953 56.7771 5.22511C56.9706 4.86069 57.1372 4.54451 57.2769 4.27655C57.4274 4.0086 57.5779 3.80495 57.7284 3.66561C57.8789 3.51556 58.0671 3.44053 58.2928 3.44053C58.5508 3.44053 58.739 3.53164 58.8572 3.71385C58.9862 3.88534 59.0507 4.09434 59.0507 4.34086C59.0507 4.65169 58.9593 4.97323 58.7766 5.3055C58.6046 5.63776 58.3788 5.96467 58.0993 6.28621C57.8198 6.59704 57.4973 6.89715 57.1318 7.18654C56.7771 7.47593 56.4169 7.73853 56.0514 7.97433C55.6859 8.21013 55.3312 8.41913 54.9872 8.60134C54.6539 8.77283 54.369 8.89609 54.1325 8.97112L53.681 8.56919Z" fill="#404040"/>
<path d="M8.53047 31.1417C7.3372 31.1417 6.27294 30.9541 5.33768 30.579C4.40242 30.2146 3.61228 29.684 2.96727 28.9873C2.33302 28.2799 1.84389 27.4171 1.49988 26.3989C1.16663 25.37 1 24.2017 1 22.8941C1 22.1759 1.04838 21.4149 1.14513 20.6111C1.25263 19.8072 1.41388 18.9926 1.62888 18.1673C1.96214 16.8597 2.39752 15.6218 2.93502 14.4535C3.47253 13.2745 4.09066 12.1866 4.78942 11.1898C5.49893 10.193 8.50144 6.02898 9.33995 5.22511C10.1892 4.41053 11.7071 3.33657 12.6424 2.7685C13.5777 2.20044 14.5505 1.76635 15.5611 1.46624C16.5716 1.15541 17.5982 1 18.641 1C19.1355 1 19.6354 1.05895 20.1406 1.17685C20.6459 1.29475 21.0974 1.49304 21.4951 1.77171C21.9036 2.03966 22.2315 2.40408 22.4788 2.86497C22.7368 3.31513 22.8658 3.87783 22.8658 4.55308C22.8658 5.1533 22.7744 5.71065 22.5916 6.22512C22.4196 6.72887 22.1724 7.19512 21.8499 7.62384C21.5381 8.04185 21.1726 8.42771 20.7534 8.78141C20.3341 9.13511 19.8826 9.45129 19.3988 9.72997L19.1086 9.32804C19.9794 8.63135 20.619 7.865 21.0275 7.02898C21.4467 6.18225 21.6564 5.298 21.6564 4.37623C21.6564 3.41159 21.4306 2.70955 20.9791 2.27011C20.5384 1.83066 19.888 1.61094 19.028 1.61094C17.9315 1.61094 16.8134 1.93784 15.6739 2.59165C14.5452 3.23474 13.4594 4.12435 12.4166 5.26048C11.3739 6.39661 8.9723 8.80392 8.10154 10.3473C7.23078 11.88 5.10118 16.1148 4.53142 17.894C4.16591 19.0409 3.88641 20.1716 3.69291 21.2863C3.49941 22.3903 3.40265 23.4246 3.40265 24.3892C3.40265 28.3657 5.19255 30.3539 8.77234 30.3539C10.8149 30.3539 12.6961 29.7108 14.4162 28.4246C16.1362 27.1277 17.7595 25.1395 19.286 22.46L20.1245 20.9809L20.5599 21.2863L19.7214 22.7654C18.9043 24.2017 18.0712 25.445 17.2219 26.4954C16.3727 27.5457 15.4912 28.4139 14.5774 29.0999C13.6637 29.7859 12.7069 30.295 11.7071 30.6272C10.7074 30.9702 9.64848 31.1417 8.53047 31.1417Z" stroke="#404040" mask="url(#path-1-outside-1)"/>
<path d="M26.6874 2.99037H29.0901L23.4624 18.3763C24.1934 17.1545 24.8868 16.0934 25.5425 15.193C26.2091 14.282 26.8702 13.5317 27.5259 12.9422C28.1817 12.342 28.8536 11.8972 29.5416 11.6078C30.2296 11.3077 30.966 11.1576 31.7507 11.1576C32.4065 11.1576 32.9816 11.2648 33.4761 11.4792C33.9814 11.6935 34.4007 11.999 34.7339 12.3956C35.0779 12.7814 35.3359 13.2477 35.5079 13.7943C35.6799 14.3409 35.7659 14.9519 35.7659 15.6271C35.7659 16.1094 35.6745 16.6775 35.4918 17.3313C35.3198 17.9851 35.0994 18.6818 34.8307 19.4214C34.5619 20.1609 34.2717 20.9219 33.9599 21.7043C33.6481 22.476 33.3579 23.2263 33.0891 23.9552C32.8204 24.684 32.5946 25.3646 32.4119 25.997C32.2399 26.6186 32.1539 27.1492 32.1539 27.5886C32.1539 28.3282 32.3474 28.9177 32.7344 29.3571C33.1321 29.7966 33.7449 30.0163 34.5727 30.0163C35.2929 30.0163 35.9863 29.8609 36.6528 29.5501C37.3301 29.2392 37.9966 28.773 38.6523 28.1513C39.3188 27.519 39.9854 26.7312 40.6519 25.788C41.3184 24.834 42.0118 23.7247 42.732 22.46L43.5705 20.9809L44.0059 21.2863L43.1674 22.7654C42.3826 24.1481 41.6301 25.3485 40.9099 26.3667C40.2004 27.3743 39.4855 28.2103 38.7652 28.8748C38.0557 29.5286 37.3301 30.0163 36.5883 30.3378C35.8465 30.6594 35.0564 30.8202 34.2179 30.8202C33.5621 30.8202 32.9816 30.7183 32.4764 30.5147C31.9819 30.3218 31.5626 30.0431 31.2186 29.6787C30.8854 29.3142 30.6327 28.8748 30.4607 28.3603C30.2887 27.8459 30.2027 27.2724 30.2027 26.6401C30.2027 26.1792 30.2887 25.6272 30.4607 24.9841C30.6435 24.3303 30.8692 23.6282 31.138 22.878C31.4067 22.1277 31.697 21.3614 32.0088 20.5789C32.3205 19.7858 32.6108 19.0248 32.8795 18.2959C33.1483 17.5671 33.3686 16.8919 33.5406 16.2702C33.7234 15.6378 33.8148 15.1126 33.8148 14.6946C33.8148 13.8586 33.6159 13.1941 33.2181 12.7011C32.8311 12.208 32.2238 11.9615 31.396 11.9615C30.665 11.9615 29.9609 12.133 29.2836 12.476C28.6063 12.819 27.9076 13.3656 27.1873 14.1159C26.4778 14.8554 25.7307 15.8147 24.9459 16.9937C24.1719 18.1727 23.328 19.6036 22.4143 21.2863L19.028 30.5147H16.6414L26.6874 2.99037Z" stroke="#404040" mask="url(#path-1-outside-1)"/>
<path d="M43.4415 21.1255C43.8285 19.968 44.2908 18.9176 44.8283 17.9744C45.3658 17.0205 45.9463 16.1737 46.5698 15.4342C47.2041 14.6946 47.8652 14.0569 48.5532 13.521C49.252 12.9851 49.9453 12.5456 50.6334 12.2027C51.3321 11.849 52.0147 11.5864 52.6813 11.4149C53.3585 11.2434 53.9928 11.1576 54.584 11.1576C55.1968 11.1576 55.7074 11.2541 56.1159 11.447C56.5244 11.6292 56.8523 11.8918 57.0996 12.2348C57.3576 12.5671 57.5403 12.9744 57.6478 13.4567C57.7553 13.9283 57.8091 14.4535 57.8091 15.0323L59.1152 11.4631H61.5017L57.3898 22.7172C57.2393 23.1352 57.0888 23.5639 56.9383 24.0034C56.7878 24.4321 56.6534 24.8608 56.5352 25.2896C56.4277 25.7076 56.3363 26.1149 56.2611 26.5114C56.1965 26.8973 56.1643 27.2564 56.1643 27.5886C56.1643 28.3282 56.1973 28.9288 56.5352 29.6915C56.7692 30.2197 56.8545 30.4733 57.1447 30.9263C57.4225 31.3599 57.4621 31.9183 57.8091 32.2993C65.3991 40.6324 80.3756 36.832 81.6015 36.3476C82.4597 36.0086 84.3239 34.1175 84.3239 34.1175C84.3239 34.1175 85.1408 33.3031 86.3662 32.353L87.5916 31.2672L88 31.473L86.9108 32.4888C85.6888 33.735 85.1748 34.1364 84.0516 35.339C83.6357 35.7844 83.7793 35.7462 82.6901 36.4249C82.0894 36.7991 81.4757 37.2351 80.7759 37.4409C79.798 37.7285 78.9989 37.8525 78.1733 38.0583C77.7219 38.1708 63.5432 40.1868 56.7319 33.1899C56.1405 32.5824 55.7291 31.8205 55.2871 30.7205C54.9898 29.9805 54.6432 28.8748 54.4712 28.3603C54.2992 27.8459 54.2132 27.2724 54.2132 26.6401C54.2132 26.2221 54.2508 25.7719 54.326 25.2896C54.4013 24.7965 54.5142 24.2874 54.6647 23.7622C53.2564 26.1202 51.8642 27.8887 50.4882 29.0677C49.1122 30.236 47.7147 30.8202 46.2957 30.8202C45.6292 30.8202 45.0594 30.7023 44.5864 30.4665C44.1242 30.2199 43.7425 29.8823 43.4415 29.4536C43.1405 29.0141 42.9201 28.505 42.7804 27.9262C42.6406 27.3367 42.5708 26.6937 42.5708 25.997C42.5708 25.2467 42.646 24.4589 42.7965 23.6336C42.947 22.7976 43.162 21.9616 43.4415 21.1255ZM46.8762 30.0163C47.4567 30.0163 48.048 29.8662 48.65 29.5661C49.252 29.2553 49.8486 28.8373 50.4399 28.3121C51.0419 27.7762 51.6224 27.1545 52.1814 26.4471C52.7404 25.729 53.2671 24.968 53.7616 24.1642C54.2669 23.3496 54.7292 22.5136 55.1484 21.6561C55.5677 20.7986 55.9278 19.9573 56.2288 19.132C56.5406 18.2959 56.7771 17.5028 56.9383 16.7525C57.1103 15.9915 57.1963 15.3109 57.1963 14.7107C57.1963 14.1641 57.1264 13.7086 56.9867 13.3441C56.8577 12.969 56.6803 12.6689 56.4546 12.4438C56.2396 12.208 55.9869 12.0419 55.6967 11.9454C55.4172 11.849 55.1269 11.8007 54.8259 11.8007C54.2239 11.8007 53.552 11.9883 52.8103 12.3634C52.0792 12.7278 51.3321 13.2906 50.5689 14.0515C49.8056 14.8018 49.0531 15.7557 48.3113 16.9133C47.5803 18.0601 46.9084 19.4106 46.2957 20.9648C45.7904 22.2617 45.4088 23.4621 45.1508 24.5661C44.9035 25.6701 44.7799 26.5918 44.7799 27.3314C44.7799 28.1674 44.9465 28.8266 45.2798 29.3089C45.6238 29.7805 46.1559 30.0163 46.8762 30.0163ZM53.681 8.56919C54.0143 8.41913 54.3905 8.15118 54.8098 7.76532C55.2398 7.37947 55.6429 6.9293 56.0192 6.41483C56.3417 5.9861 56.5943 5.58953 56.7771 5.22511C56.9706 4.86069 57.1372 4.54451 57.2769 4.27655C57.4274 4.0086 57.5779 3.80495 57.7284 3.66561C57.8789 3.51556 58.0671 3.44053 58.2928 3.44053C58.5508 3.44053 58.739 3.53164 58.8572 3.71385C58.9862 3.88534 59.0507 4.09434 59.0507 4.34086C59.0507 4.65169 58.9593 4.97323 58.7766 5.3055C58.6046 5.63776 58.3788 5.96467 58.0993 6.28621C57.8198 6.59704 57.4973 6.89715 57.1318 7.18654C56.7771 7.47593 56.4169 7.73853 56.0514 7.97433C55.6859 8.21013 55.3312 8.41913 54.9872 8.60134C54.6539 8.77283 54.369 8.89609 54.1325 8.97112L53.681 8.56919Z" stroke="#404040" mask="url(#path-1-outside-1)"/>
<path d="M67.0657 23.4872C66.6163 23.4872 66.2033 23.378 65.8266 23.1598C65.45 22.9372 65.1504 22.6333 64.9278 22.2481C64.7096 21.8587 64.6004 21.4221 64.6004 20.9385C64.6004 20.472 64.7139 20.0461 64.9407 19.6609C65.1718 19.2758 65.4778 18.9719 65.8587 18.7493C66.2439 18.5268 66.6526 18.4155 67.0849 18.4155C67.3845 18.4155 67.622 18.4433 67.7975 18.499C67.973 18.5503 68.1763 18.6423 68.4074 18.775V19.0125C68.1891 18.8627 67.9858 18.7579 67.7975 18.698C67.6135 18.6338 67.3824 18.6017 67.1042 18.6017C66.6805 18.6017 66.2931 18.7108 65.9422 18.9291C65.5955 19.1431 65.3195 19.432 65.114 19.7958C64.9129 20.1553 64.8123 20.5426 64.8123 20.9578C64.8123 21.3772 64.915 21.7667 65.1204 22.1262C65.3259 22.4857 65.5977 22.7724 65.9358 22.9864C66.2782 23.1961 66.6462 23.301 67.04 23.301C67.3225 23.301 67.5685 23.2689 67.7783 23.2047C67.988 23.1362 68.1977 23.0314 68.4074 22.8901V23.1277C68.202 23.2518 67.9901 23.3417 67.7718 23.3973C67.5578 23.4572 67.3225 23.4872 67.0657 23.4872Z" fill="#404040"/>
<path d="M73.8266 23.3588H73.6019L72.6902 21.5227H70.1351L69.2428 23.3588H69.0181L71.4191 18.4283L73.8266 23.3588ZM72.6132 21.3365L71.4063 18.8906L70.225 21.3365H72.6132Z" fill="#404040"/>
<path d="M75.5501 23.4487C75.0152 23.4487 74.6 23.2282 74.3047 22.7874V22.4407C74.4202 22.6975 74.5872 22.8987 74.8054 23.0442C75.028 23.1897 75.2933 23.2625 75.6015 23.2625C75.8155 23.2625 76.0124 23.2154 76.1921 23.1212C76.3762 23.0271 76.5217 22.8944 76.6287 22.7232C76.7357 22.552 76.7892 22.3551 76.7892 22.1326C76.7892 21.9314 76.7549 21.7581 76.6865 21.6126C76.618 21.4671 76.5046 21.328 76.3462 21.1953C76.1878 21.0583 75.9589 20.8978 75.6593 20.7138L75.4538 20.5854C75.2655 20.4698 75.1136 20.3671 74.998 20.2773C74.8825 20.1874 74.7819 20.0825 74.6963 19.9627C74.585 19.7958 74.5294 19.6032 74.5294 19.3849C74.5294 19.0939 74.6235 18.867 74.8119 18.7044C75.0002 18.5418 75.2398 18.4604 75.5309 18.4604C75.9246 18.4604 76.2371 18.606 76.4682 18.897V19.2244C76.3697 19.0446 76.2349 18.9034 76.0637 18.8007C75.8925 18.698 75.7042 18.6466 75.4988 18.6466C75.2848 18.6466 75.105 18.7129 74.9595 18.8456C74.814 18.9783 74.7412 19.1559 74.7412 19.3785C74.7412 19.5967 74.8076 19.7851 74.9403 19.9434C75.0772 20.0975 75.3062 20.2666 75.6272 20.4506C76.0209 20.6817 76.3269 20.8914 76.5452 21.0797C76.6993 21.221 76.8106 21.3772 76.879 21.5484C76.9518 21.7196 76.9882 21.91 76.9882 22.1197C76.9882 22.3851 76.9261 22.6184 76.802 22.8195C76.6779 23.0207 76.5067 23.1769 76.2884 23.2882C76.0701 23.3952 75.8241 23.4487 75.5501 23.4487Z" fill="#404040"/>
<path d="M82.2714 23.3588H82.0467L81.1351 21.5227H78.58L77.6876 23.3588H77.463L79.864 18.4283L82.2714 23.3588ZM81.0581 21.3365L79.8511 18.8906L78.6699 21.3365H81.0581Z" fill="#404040"/>
<path d="M64.6128 26.5521V30.8855H64.4266V26L67.9703 30.3976V26.0706H68.1565V30.9561L64.6128 26.5521Z" fill="#404040"/>
<path d="M71.4708 31.0139C71.0214 31.0139 70.6041 30.8962 70.2189 30.6608C69.8337 30.4254 69.5277 30.113 69.3009 29.7235C69.0783 29.3298 68.9671 28.9082 68.9671 28.4588C68.9671 28.0137 69.0805 27.5985 69.3073 27.2133C69.5341 26.8239 69.8402 26.5157 70.2254 26.2889C70.6105 26.0578 71.0278 25.9422 71.4772 25.9422C71.9309 25.9422 72.3482 26.0556 72.7291 26.2825C73.11 26.5093 73.4117 26.8175 73.6343 27.2069C73.8611 27.5921 73.9745 28.0094 73.9745 28.4588C73.9745 28.921 73.8611 29.349 73.6343 29.7428C73.4117 30.1322 73.1079 30.4425 72.7227 30.6736C72.3418 30.9005 71.9245 31.0139 71.4708 31.0139ZM71.4708 30.8277C71.8817 30.8277 72.2626 30.7229 72.6135 30.5131C72.9645 30.2992 73.2427 30.0124 73.4481 29.6529C73.6578 29.2891 73.7627 28.8953 73.7627 28.4716C73.7627 28.0522 73.66 27.6627 73.4545 27.3032C73.2491 26.9437 72.9709 26.6591 72.62 26.4494C72.269 26.2354 71.8881 26.1284 71.4772 26.1284C71.0621 26.1284 70.679 26.2354 70.3281 26.4494C69.9771 26.6591 69.6968 26.9437 69.4871 27.3032C69.2816 27.6627 69.1789 28.0522 69.1789 28.4716C69.1789 28.8953 69.2816 29.2891 69.4871 29.6529C69.6968 30.0124 69.9771 30.2992 70.3281 30.5131C70.679 30.7229 71.0599 30.8277 71.4708 30.8277Z" fill="#404040"/>
<path d="M78.4861 26.0706L76.2841 30.9946L74.0821 26.0706H74.3132L76.3033 30.5067L78.2678 26.0706H78.4861Z" fill="#404040"/>
<path d="M82.6507 30.8855H82.426L81.5144 29.0494H78.9593L78.0669 30.8855H77.8423L80.2433 25.9551L82.6507 30.8855ZM81.4374 28.8632L80.2304 26.4173L79.0492 28.8632H81.4374Z" fill="#404040"/>
<path fill-rule="evenodd" clip-rule="evenodd" d="M65.714 23.3503C65.304 23.1081 64.9774 22.7765 64.7362 22.3589L64.7347 22.3564C64.4964 21.9311 64.3791 21.4568 64.3791 20.9385C64.3791 20.4343 64.5022 19.9694 64.7499 19.5486L64.7509 19.547C65.0007 19.1305 65.3334 18.7999 65.747 18.5582L65.748 18.5576C66.1658 18.3162 66.6126 18.1941 67.0849 18.1941C67.3937 18.1941 67.656 18.2223 67.862 18.2872C68.0594 18.3452 68.2785 18.4458 68.5176 18.583L68.6288 18.6468V19.4329L68.2821 19.1951C68.0761 19.0537 67.8924 18.9605 67.7304 18.9089L67.7275 18.908L67.7246 18.907C67.5717 18.8536 67.3673 18.823 67.1042 18.823C66.7207 18.823 66.374 18.9212 66.0591 19.1171L66.0585 19.1175C65.7445 19.3112 65.4945 19.5723 65.307 19.9042C65.1246 20.2303 65.0337 20.5803 65.0337 20.9577C65.0337 21.3392 65.1266 21.6907 65.3127 22.0163C65.5005 22.3451 65.7469 22.6046 66.0528 22.7985C66.3607 22.9868 66.6884 23.0796 67.04 23.0796C67.3055 23.0796 67.5282 23.0495 67.7115 22.9936C67.8985 22.9323 68.0893 22.8375 68.2837 22.7065L68.6288 22.4741V23.2525L68.5219 23.3171C68.2998 23.4513 68.0688 23.5498 67.829 23.6112C67.5936 23.6768 67.3386 23.7085 67.0657 23.7085C66.5786 23.7085 66.1271 23.5898 65.7156 23.3513L65.714 23.3503ZM65.4765 22.6089C65.3414 22.466 65.2227 22.3051 65.1204 22.1262C65.0612 22.0224 65.0104 21.9162 64.9683 21.8075C64.8643 21.5394 64.8123 21.2562 64.8123 20.9577C64.8123 20.9513 64.8123 20.9449 64.8124 20.9385C64.8154 20.5306 64.916 20.1497 65.114 19.7958C65.1184 19.7881 65.1227 19.7804 65.1271 19.7728C65.1274 19.7723 65.1277 19.7718 65.128 19.7713C65.3319 19.419 65.6033 19.1382 65.9422 18.9291C65.9472 18.926 65.9522 18.9229 65.9572 18.9198C65.9575 18.9196 65.9578 18.9195 65.958 18.9193C66.2995 18.7108 66.6751 18.6049 67.0849 18.6017C67.0913 18.6017 67.0977 18.6017 67.1042 18.6017C67.3543 18.6017 67.5663 18.6276 67.7403 18.6795C67.7416 18.6799 67.743 18.6803 67.7443 18.6807C67.7625 18.6862 67.7802 18.6919 67.7975 18.698C67.9206 18.7371 68.0501 18.7955 68.186 18.8731C68.2263 18.8961 68.2672 18.9208 68.3086 18.9471C68.3412 18.9679 68.3741 18.9897 68.4074 19.0125V18.775C68.2033 18.6578 68.0208 18.5723 67.8601 18.5186C67.8584 18.518 67.8568 18.5175 67.8551 18.5169C67.8356 18.5105 67.8164 18.5045 67.7975 18.4989C67.6258 18.4445 67.3947 18.4167 67.1042 18.4155C67.0978 18.4155 67.0914 18.4155 67.0849 18.4155C66.6526 18.4155 66.2439 18.5268 65.8587 18.7493C65.852 18.7533 65.8453 18.7572 65.8386 18.7612C65.8384 18.7613 65.8382 18.7614 65.838 18.7616C65.4667 18.983 65.1676 19.2828 64.9407 19.6609C64.9352 19.6702 64.9299 19.6795 64.9245 19.6888C64.9244 19.689 64.9243 19.6892 64.9241 19.6895C64.7083 20.0671 64.6004 20.4835 64.6004 20.9385C64.6004 20.9449 64.6005 20.9513 64.6005 20.9577C64.6025 21.2892 64.656 21.5983 64.761 21.8853C64.8068 22.0105 64.8624 22.1314 64.9278 22.2481C65.0386 22.4398 65.1684 22.6113 65.3172 22.7627C65.4675 22.9154 65.6371 23.0477 65.8262 23.1595C65.8264 23.1596 65.8265 23.1597 65.8266 23.1598C65.8274 23.1602 65.8281 23.1606 65.8288 23.161C66.1977 23.3743 66.6014 23.483 67.04 23.487C67.0485 23.4871 67.0571 23.4872 67.0657 23.4872C67.3225 23.4872 67.5578 23.4572 67.7718 23.3973C67.792 23.3921 67.8122 23.3867 67.8322 23.381C67.8333 23.3807 67.8344 23.3803 67.8355 23.38C68.0314 23.3238 68.222 23.2397 68.4074 23.1277V22.8901C68.373 22.9133 68.3386 22.9355 68.3041 22.9567C68.2648 22.981 68.2254 23.004 68.186 23.0257C68.0501 23.1006 67.9142 23.1603 67.7783 23.2047C67.7613 23.2099 67.744 23.2149 67.7266 23.2197C67.7252 23.22 67.7238 23.2204 67.7224 23.2208C67.5318 23.2725 67.3129 23.2992 67.0657 23.3009C67.0571 23.301 67.0486 23.301 67.04 23.301C66.6462 23.301 66.2782 23.1961 65.9358 22.9864C65.9341 22.9854 65.9325 22.9844 65.9309 22.9833C65.9304 22.983 65.9299 22.9827 65.9294 22.9824C65.7621 22.8758 65.6112 22.7513 65.4765 22.6089ZM74.181 23.5801H73.4646L72.553 21.7441H70.2737L69.3813 23.5801H68.6641L71.4189 17.9232L74.181 23.5801ZM72.6902 21.5227L73.6019 23.3588H73.8266L71.4191 18.4283L69.0181 23.3588H69.2428L70.1351 21.5227H72.6902ZM72.6132 21.3365L71.4063 18.8906L70.225 21.3365H72.6132ZM72.2571 21.1151H70.5778L71.4084 19.3952L72.2571 21.1151ZM74.0833 22.8547V22.4407L74.5066 22.3499C74.6062 22.5713 74.7467 22.7387 74.9274 22.8594C75.1083 22.9775 75.3298 23.0411 75.6015 23.0411C75.7817 23.0411 75.9431 23.0018 76.0894 22.9251L76.0913 22.9241C76.2406 22.8478 76.3557 22.7423 76.4409 22.6059C76.5237 22.4734 76.5678 22.318 76.5678 22.1326C76.5678 21.9561 76.5377 21.8164 76.4861 21.7068C76.4347 21.5974 76.3445 21.4827 76.204 21.365L76.2027 21.3639L76.2014 21.3627C76.0561 21.2371 75.8387 21.0838 75.5434 20.9024L75.5419 20.9015L75.3381 20.7741C75.3378 20.7739 75.3375 20.7738 75.3373 20.7736C75.1455 20.6559 74.9863 20.5486 74.8621 20.452C74.7296 20.3489 74.6141 20.2285 74.5162 20.0913L74.5141 20.0884L74.5121 20.0855C74.3744 19.879 74.308 19.6428 74.308 19.3849C74.308 19.0416 74.4217 18.7488 74.6672 18.5368C74.9023 18.3337 75.1962 18.2391 75.5309 18.2391C75.9875 18.2391 76.3656 18.4119 76.6415 18.7593L76.6896 18.8198V19.2244L76.274 19.3307C76.1939 19.1845 76.0864 19.0725 75.9498 18.9905C75.8141 18.909 75.6653 18.868 75.4988 18.868C75.3348 18.868 75.2097 18.9171 75.1087 19.0092C75.0154 19.0942 74.9626 19.2092 74.9626 19.3785C74.9626 19.5467 75.0119 19.6832 75.1079 19.7988C75.2215 19.9256 75.4253 20.0797 75.7373 20.2585L75.7392 20.2597C76.1387 20.4941 76.4573 20.7115 76.6898 20.9121L76.6923 20.9143L76.6948 20.9165C76.8695 21.0766 77.0013 21.2589 77.0837 21.464C77.1689 21.6652 77.2096 21.8849 77.2096 22.1197C77.2096 22.421 77.1386 22.6955 76.9904 22.9357C76.8442 23.1727 76.642 23.3564 76.389 23.4854L76.3874 23.4862L76.3859 23.4869C76.1336 23.6106 75.8535 23.67 75.5501 23.67C74.942 23.67 74.4576 23.4134 74.1208 22.9106L74.0833 22.8547ZM76.2814 23.2916C76.2837 23.2905 76.2861 23.2893 76.2884 23.2882C76.5036 23.1785 76.6729 23.0251 76.7966 22.8282C76.7984 22.8253 76.8002 22.8224 76.802 22.8195C76.9241 22.6216 76.9862 22.3926 76.9881 22.1326C76.9882 22.1283 76.9882 22.124 76.9882 22.1197C76.9882 21.91 76.9518 21.7196 76.879 21.5484C76.8761 21.541 76.873 21.5336 76.8699 21.5262C76.8009 21.3637 76.6926 21.2148 76.5452 21.0797C76.5267 21.0638 76.5076 21.0477 76.4879 21.0314C76.487 21.0307 76.4862 21.03 76.4853 21.0293C76.3013 20.8781 76.063 20.7137 75.7704 20.536C75.7699 20.5358 75.7695 20.5355 75.769 20.5352C75.7231 20.5073 75.6758 20.4791 75.6272 20.4506C75.605 20.4378 75.5832 20.4252 75.5618 20.4126C75.5614 20.4123 75.5609 20.412 75.5604 20.4117C75.385 20.3081 75.2395 20.2094 75.1238 20.1155C75.0507 20.0562 74.9895 19.9988 74.9403 19.9434C74.9143 19.9124 74.8908 19.8802 74.8699 19.8469C74.8687 19.845 74.8675 19.8431 74.8664 19.8412C74.784 19.7075 74.7423 19.5554 74.7413 19.3849C74.7412 19.3827 74.7412 19.3806 74.7412 19.3785C74.7412 19.1633 74.8093 18.9901 74.9453 18.8589C74.95 18.8544 74.9547 18.85 74.9595 18.8456C75.105 18.7129 75.2848 18.6466 75.4988 18.6466C75.5095 18.6466 75.5202 18.6467 75.5309 18.647C75.7239 18.6521 75.9015 18.7033 76.0637 18.8007C76.1302 18.8406 76.1913 18.8863 76.2468 18.9379C76.2727 18.9619 76.2975 18.9873 76.321 19.0139C76.3768 19.0769 76.4258 19.1471 76.4682 19.2244V18.897C76.3799 18.7858 76.2798 18.6959 76.1678 18.6272C75.9866 18.516 75.7743 18.4604 75.5309 18.4604C75.5201 18.4604 75.5094 18.4605 75.4988 18.4608C75.2276 18.4664 75.0021 18.5446 74.8225 18.6953C74.8189 18.6983 74.8154 18.7013 74.8119 18.7044C74.6249 18.8658 74.5308 19.0905 74.5294 19.3785C74.5294 19.3806 74.5294 19.3827 74.5294 19.3849C74.5294 19.6032 74.585 19.7958 74.6963 19.9627C74.724 20.0014 74.7532 20.0386 74.7841 20.0743C74.7854 20.0758 74.7867 20.0773 74.788 20.0788C74.8514 20.1515 74.9214 20.2177 74.998 20.2772C75.1136 20.3671 75.2655 20.4698 75.4538 20.5854L75.6593 20.7138C75.9589 20.8978 76.1878 21.0583 76.3462 21.1953C76.364 21.2102 76.3813 21.2252 76.398 21.2403C76.3996 21.2418 76.4012 21.2433 76.4028 21.2448C76.5319 21.3624 76.6264 21.485 76.6865 21.6126C76.6881 21.6162 76.6898 21.6198 76.6915 21.6234C76.6921 21.6247 76.6927 21.626 76.6932 21.6273C76.7558 21.7666 76.7877 21.9308 76.7891 22.1197C76.7892 22.124 76.7892 22.1283 76.7892 22.1326C76.7892 22.3518 76.7373 22.5461 76.6334 22.7155C76.6319 22.7181 76.6303 22.7206 76.6287 22.7232C76.5239 22.8908 76.3823 23.0215 76.2037 23.1153C76.2028 23.1157 76.2019 23.1162 76.201 23.1167C76.198 23.1182 76.1951 23.1197 76.1921 23.1212C76.0124 23.2154 75.8155 23.2625 75.6015 23.2625C75.5842 23.2625 75.5671 23.2622 75.5501 23.2618C75.2638 23.2541 75.0155 23.1816 74.8054 23.0442C74.6975 22.9722 74.6021 22.8866 74.5192 22.7874C74.4938 22.757 74.4696 22.7253 74.4466 22.6923C74.3929 22.6154 74.3456 22.5316 74.3047 22.4407V22.7874C74.419 22.958 74.5512 23.0956 74.7014 23.2002C74.7019 23.2005 74.7023 23.2008 74.7028 23.2012C74.9404 23.3661 75.2228 23.4486 75.5501 23.4486C75.5674 23.4486 75.5845 23.4484 75.6015 23.448C75.8513 23.4418 76.0774 23.3899 76.2797 23.2924C76.2802 23.2921 76.2808 23.2919 76.2814 23.2916ZM82.6259 23.5801H81.9095L80.9979 21.7441H78.7185L77.8262 23.5801H77.1089L79.8637 17.9232L82.6259 23.5801ZM81.1351 21.5227L82.0467 23.3588H82.2714L79.864 18.4283L77.463 23.3588H77.6876L78.58 21.5227H81.1351ZM81.0581 21.3365L79.8511 18.8906L78.6699 21.3365H81.0581ZM80.702 21.1151H79.0226L79.8533 19.3952L80.702 21.1151ZM64.4266 26V30.8855H64.6127V26.5521L68.1565 30.9561V26.0706H67.9703V30.3976L64.4266 26ZM67.749 29.7701L64.2052 25.3725V31.1069H64.8341V27.1803L68.3779 31.5843V25.8492H67.749V29.7701ZM69.1082 29.8324C68.867 29.4057 68.7457 28.9466 68.7457 28.4588C68.7457 27.9742 68.8697 27.5204 69.1163 27.1015C69.3619 26.68 69.6946 26.3447 70.1123 26.0986C70.5316 25.8471 70.988 25.7208 71.4772 25.7208C71.9698 25.7208 72.4264 25.8445 72.8424 26.0923C73.2561 26.3386 73.5846 26.6742 73.8258 27.0958C74.0723 27.5149 74.1959 27.9706 74.1959 28.4588C74.1959 28.959 74.0727 29.4251 73.8263 29.853C73.5849 30.2752 73.2541 30.6129 72.8366 30.8635L72.8359 30.8638C72.4199 31.1116 71.9634 31.2353 71.4708 31.2353C70.9805 31.2353 70.5233 31.1062 70.1035 30.8497C69.687 30.5952 69.3549 30.2561 69.1096 29.8349L69.1082 29.8324ZM73.6271 29.7552C73.6295 29.751 73.6319 29.7469 73.6343 29.7428C73.859 29.3527 73.9724 28.9289 73.9745 28.4716C73.9745 28.4673 73.9745 28.4631 73.9745 28.4588C73.9745 28.0094 73.8611 27.5921 73.6343 27.2069C73.6334 27.2053 73.6324 27.2037 73.6315 27.2021C73.4092 26.8149 73.1084 26.5084 72.7291 26.2825C72.7273 26.2814 72.7255 26.2803 72.7237 26.2792C72.7232 26.2789 72.7227 26.2786 72.7222 26.2783C72.3431 26.0542 71.9281 25.9422 71.4772 25.9422C71.0298 25.9422 70.6142 26.0568 70.2304 26.2859C70.2299 26.2862 70.2294 26.2865 70.2289 26.2867C70.2277 26.2875 70.2265 26.2882 70.2254 26.2889C69.8438 26.5135 69.54 26.818 69.3139 27.2022C69.3135 27.2027 69.3132 27.2032 69.3129 27.2037C69.3111 27.2069 69.3092 27.2101 69.3073 27.2133C69.0805 27.5985 68.9671 28.0137 68.9671 28.4588C68.9671 28.4631 68.9671 28.4673 68.9671 28.4716C68.9692 28.9162 69.0805 29.3335 69.3009 29.7235C69.3059 29.7322 69.311 29.7408 69.3162 29.7494C69.3166 29.7502 69.3171 29.751 69.3176 29.7517C69.5426 30.1281 69.8431 30.4311 70.2189 30.6608C70.2236 30.6636 70.2282 30.6664 70.2329 30.6693C70.2333 30.6695 70.2338 30.6698 70.2343 30.6701C70.6152 30.8993 71.0274 31.0139 71.4708 31.0139C71.9206 31.0139 72.3346 30.9024 72.7129 30.6794C72.7134 30.6791 72.7139 30.6788 72.7144 30.6785C72.7172 30.6769 72.7199 30.6753 72.7227 30.6736C73.1035 30.4451 73.4049 30.1392 73.6268 29.7559C73.6269 29.7556 73.627 29.7554 73.6271 29.7552ZM73.4481 29.6529C73.4505 29.6487 73.4529 29.6446 73.4552 29.6404C73.4554 29.6402 73.4555 29.64 73.4556 29.6398C73.6603 29.2797 73.7627 28.8903 73.7627 28.4716C73.7627 28.4673 73.7627 28.4631 73.7627 28.4588C73.7606 28.047 73.6592 27.6642 73.4586 27.3104C73.4582 27.3096 73.4577 27.3088 73.4573 27.3081C73.4564 27.3064 73.4555 27.3048 73.4545 27.3032C73.2505 26.9462 72.9747 26.663 72.6271 26.4537C72.6247 26.4522 72.6223 26.4508 72.62 26.4494C72.269 26.2354 71.8881 26.1284 71.4772 26.1284C71.0621 26.1284 70.679 26.2354 70.3281 26.4494C70.3265 26.4503 70.3249 26.4513 70.3233 26.4522C70.3229 26.4525 70.3225 26.4527 70.322 26.453C69.9739 26.6624 69.6956 26.9458 69.4871 27.3032C69.485 27.3069 69.4828 27.3106 69.4807 27.3143C69.4806 27.3146 69.4804 27.3149 69.4803 27.3152C69.2814 27.6677 69.181 28.0489 69.1789 28.4588C69.1789 28.4631 69.1789 28.4673 69.1789 28.4716C69.1789 28.8843 69.2763 29.2685 69.4712 29.6243C69.4716 29.6251 69.472 29.6258 69.4724 29.6265C69.4772 29.6353 69.4821 29.6441 69.4871 29.6529C69.694 30.0077 69.9698 30.2916 70.3143 30.5047C70.3189 30.5075 70.3235 30.5103 70.3281 30.5131C70.679 30.7228 71.0599 30.8277 71.4708 30.8277C71.8817 30.8277 72.2626 30.7228 72.6135 30.5131C72.6167 30.5112 72.6198 30.5093 72.6229 30.5074C72.6231 30.5073 72.6233 30.5072 72.6235 30.507C72.9697 30.2937 73.2446 30.009 73.4481 29.6529ZM69.6788 27.4139C69.4931 27.7393 69.4003 28.0905 69.4003 28.4716C69.4003 28.8572 69.4932 29.213 69.6791 29.5427C69.8703 29.8699 70.1241 30.1293 70.4424 30.3236C70.7587 30.5124 71.1 30.6063 71.4708 30.6063C71.8416 30.6063 72.1829 30.5124 72.4991 30.3236C72.8175 30.1293 73.069 29.87 73.2559 29.543L73.2563 29.5423C73.4465 29.2125 73.5413 28.8569 73.5413 28.4716C73.5413 28.0902 73.4484 27.7387 73.2623 27.413C73.0755 27.0861 72.8242 26.8293 72.5064 26.6394L72.5047 26.6384C72.1884 26.4455 71.8474 26.3498 71.4772 26.3498C71.1023 26.3498 70.7592 26.4458 70.4433 26.6384L70.4416 26.6394C70.1237 26.8294 69.87 27.0865 69.6788 27.4139ZM78.8276 25.8492L76.2841 31.5369L73.7406 25.8492H74.4565L76.302 29.963L78.1237 25.8492H78.8276ZM78.4861 26.0706H78.2678L76.3033 30.5067L74.3132 26.0706H74.0821L76.2841 30.9946L78.4861 26.0706ZM83.0052 31.1069H82.2888L81.3772 29.2708H79.0978L78.2055 31.1069H77.4882L80.243 25.45L83.0052 31.1069ZM81.5144 29.0494L82.426 30.8855H82.6507L80.2433 25.955L77.8422 30.8855H78.0669L78.9593 29.0494H81.5144ZM81.4374 28.8632L80.2304 26.4173L79.0492 28.8632H81.4374ZM81.0813 28.6419H79.4019L80.2326 26.9219L81.0813 28.6419Z" fill="#404040"/>
<path d="M63.7617 16.8048L72.9631 8.84767L73.9102 9.42059L64.3745 17.6135L63.7617 16.8048Z" fill="#404040"/>
<path d="M73.8155 8.88016L82.9713 16.8052L82.4041 17.646L72.8685 9.45308L73.8155 8.88016Z" fill="#404040"/>
<ellipse cx="73.4316" cy="9.21024" rx="0.641009" ry="0.462135" fill="#404040"/>
<path d="M68.0206 2.36932C67.9936 2.40852 67.9495 2.47345 67.8883 2.56411C67.827 2.65476 67.7559 2.76256 67.6751 2.88752C67.5942 3.01247 67.506 3.15091 67.4105 3.30281C67.3174 3.45472 67.2231 3.61153 67.1275 3.77323C67.0344 3.93494 66.9425 4.0991 66.8519 4.2657C66.7637 4.42986 66.6853 4.58789 66.6167 4.7398C66.5088 4.97501 66.4194 5.18572 66.3484 5.37192C66.2798 5.55568 66.2246 5.71984 66.183 5.8644C66.1438 6.00895 66.1156 6.13513 66.0985 6.24294C66.0838 6.34829 66.0764 6.43894 66.0764 6.5149C66.0764 6.65455 66.0972 6.75133 66.1389 6.80523C66.183 6.85914 66.2418 6.88609 66.3153 6.88609C66.3912 6.88609 66.4635 6.86649 66.5321 6.82729C66.6032 6.78808 66.6706 6.73786 66.7343 6.6766C66.8004 6.61535 66.8617 6.54552 66.918 6.46712C66.9768 6.38872 67.0307 6.31031 67.0797 6.23191C67.1312 6.15351 67.1777 6.07878 67.2194 6.00773C67.261 5.93667 67.2978 5.87665 67.3296 5.82764L67.4619 5.93055C67.435 5.97465 67.4007 6.03345 67.359 6.10696C67.3198 6.17801 67.2745 6.25641 67.2231 6.34217C67.1716 6.42792 67.1128 6.5149 67.0466 6.6031C66.9805 6.68886 66.907 6.76726 66.8261 6.83831C66.7477 6.90936 66.6595 6.96817 66.5615 7.01472C66.466 7.05882 66.3618 7.08087 66.2491 7.08087C66.1952 7.08087 66.1377 7.07352 66.0764 7.05882C66.0176 7.04412 65.9625 7.01839 65.911 6.98164C65.8596 6.94489 65.8142 6.89466 65.775 6.83096C65.7358 6.76481 65.7101 6.6815 65.6979 6.58105C65.5141 6.77951 65.3352 6.93019 65.1613 7.03309C64.9873 7.13355 64.8232 7.18378 64.6688 7.18378C64.5904 7.18378 64.5034 7.1703 64.4079 7.14335C64.3148 7.1164 64.2266 7.06985 64.1433 7.00369C64.06 6.93754 63.9901 6.85056 63.9338 6.74276C63.8774 6.6325 63.8493 6.49652 63.8493 6.33482C63.8493 6.15351 63.8774 5.98078 63.9338 5.81662C63.9901 5.65246 64.0661 5.50056 64.1616 5.3609C64.2572 5.21879 64.3662 5.09139 64.4887 4.97868C64.6137 4.86353 64.7435 4.76675 64.8783 4.68835C65.0131 4.60749 65.1478 4.54501 65.2826 4.50091C65.4198 4.45681 65.5484 4.43476 65.6685 4.43476C65.8277 4.43476 65.9527 4.45436 66.0433 4.49356C66.134 4.53276 66.2026 4.57197 66.2491 4.61117C66.2834 4.54256 66.33 4.45559 66.3888 4.35023C66.4476 4.24243 66.5162 4.1236 66.5946 3.99374C66.673 3.86144 66.76 3.72178 66.8555 3.57477C66.9511 3.42532 67.0528 3.27586 67.1606 3.1264C67.2684 2.9745 67.3811 2.82504 67.4987 2.67804C67.6187 2.53103 67.74 2.39382 67.8625 2.26642L68.0206 2.36932ZM65.6942 6.30541C65.7064 6.12411 65.7481 5.91095 65.8191 5.66594C65.8926 5.41848 66.0041 5.13426 66.1536 4.8133C66.1193 4.76185 66.0703 4.72265 66.0066 4.6957C65.9453 4.66629 65.8755 4.65159 65.7971 4.65159C65.677 4.65159 65.5545 4.6761 65.4296 4.7251C65.3071 4.7741 65.1882 4.84025 65.0731 4.92356C64.9604 5.00686 64.8538 5.10609 64.7533 5.22124C64.6529 5.33395 64.5647 5.45523 64.4887 5.58508C64.4152 5.71494 64.3564 5.85092 64.3123 5.99303C64.2707 6.13268 64.2499 6.27111 64.2499 6.40832C64.2499 6.59208 64.2878 6.73541 64.3638 6.83831C64.4422 6.94122 64.5463 6.99267 64.6762 6.99267C64.7374 6.99267 64.8048 6.98042 64.8783 6.95592C64.9518 6.93142 65.0314 6.89221 65.1172 6.83831C65.2054 6.78196 65.2973 6.71091 65.3928 6.62515C65.4884 6.53695 65.5888 6.43037 65.6942 6.30541Z" fill="#404040"/>
<path d="M67.6126 6.36054C67.6077 6.38994 67.604 6.41934 67.6016 6.44874C67.5991 6.47815 67.5979 6.50755 67.5979 6.53695C67.5979 6.62515 67.6102 6.70968 67.6347 6.79053C67.6616 6.86894 67.6996 6.93877 67.7486 7.00002C67.8001 7.05882 67.8625 7.10537 67.936 7.13967C68.012 7.17398 68.0977 7.19113 68.1933 7.19113C68.5143 7.19113 68.8242 7.0821 69.1231 6.86404C69.422 6.64598 69.7197 6.30051 70.0162 5.82764L70.1411 5.9379C69.9794 6.20741 69.8153 6.43527 69.6487 6.62148C69.482 6.80523 69.3154 6.95469 69.1488 7.06985C68.9847 7.185 68.823 7.2683 68.6637 7.31976C68.5045 7.37121 68.3525 7.39693 68.208 7.39693C68.1026 7.39693 67.9912 7.38223 67.8736 7.35283C67.7559 7.32343 67.6469 7.27443 67.5465 7.20583C67.4485 7.13722 67.3676 7.04535 67.3039 6.93019C67.2378 6.81504 67.2047 6.6717 67.2047 6.5002C67.2047 6.31644 67.2365 6.14003 67.3002 5.97097C67.3615 5.79947 67.4423 5.64021 67.5428 5.4932C67.6432 5.3462 67.7584 5.21267 67.8883 5.09261C68.0181 4.97011 68.1492 4.86598 68.2815 4.78022C68.4163 4.69447 68.5473 4.62832 68.6747 4.58177C68.8021 4.53276 68.9148 4.50826 69.0129 4.50826C69.0766 4.50826 69.1415 4.51806 69.2076 4.53766C69.2738 4.55727 69.3326 4.58789 69.384 4.62954C69.4379 4.6712 69.4808 4.72632 69.5127 4.79493C69.547 4.86353 69.5641 4.94561 69.5641 5.04116C69.5641 5.17102 69.5335 5.29352 69.4722 5.40868C69.4134 5.52138 69.3338 5.62674 69.2334 5.72474C69.1329 5.82029 69.0165 5.90727 68.8842 5.98568C68.7519 6.06163 68.6135 6.12656 68.4689 6.18046C68.3244 6.23436 68.1786 6.27724 68.0316 6.30909C67.8846 6.34094 67.7449 6.35809 67.6126 6.36054ZM67.642 6.20251C67.8062 6.18536 67.9605 6.15106 68.1051 6.09961C68.2496 6.04815 68.3819 5.98568 68.502 5.91217C68.6221 5.83622 68.7286 5.75414 68.8217 5.66594C68.9173 5.57773 68.9969 5.4883 69.0606 5.39765C69.1243 5.307 69.1733 5.22002 69.2076 5.13671C69.2419 5.05341 69.2591 4.97868 69.2591 4.91253C69.2591 4.84638 69.2407 4.7937 69.204 4.7545C69.1697 4.7153 69.128 4.6957 69.079 4.6957C68.9712 4.6957 68.8499 4.7349 68.7152 4.8133C68.5804 4.88925 68.4457 4.99583 68.3109 5.13304C68.1761 5.2678 68.0487 5.42705 67.9287 5.61081C67.8111 5.79457 67.7155 5.9918 67.642 6.20251Z" fill="#404040"/>
</svg>
